<svg width="181" height="141" viewBox="0 0 181 141" fill="none" xmlns="http://www.w3.org/2000/svg">
<g id="Vector" clip-path="url(#clip0_169_740)">
<path id="Vector_2" d="M90.114 140.015C80.0584 140.015 72.7642 132.624 65.0532 124.793C59.0511 118.704 52.851 112.411 45.1817 109.819C31.1351 105.066 15.859 101.795 1.08304 98.6374L0.124374 98.4337L38.0021 0.0148926L38.2001 0.116752C45.9945 4.16849 54.1014 7.71093 62.3022 10.6762C64.8343 11.5929 66.9288 13.2566 68.3564 15.4862C73.8166 23.9971 79.975 32.0666 86.6648 39.4684C87.5818 40.487 88.8114 41.0416 90.114 41.0416C91.4165 41.0416 92.6461 40.487 93.5631 39.4684C100.253 32.0779 106.411 24.0084 111.871 15.4862C113.31 13.2453 115.404 11.5816 117.926 10.6762C126.116 7.72225 134.223 4.16849 142.028 0.116752L142.226 0.0148926L142.309 0.229929L180.114 98.4223L179.864 98.4789C177.717 98.943 175.519 99.3957 173.278 99.8597C158.429 102.938 141.601 106.424 128.419 113.237C123 116.033 118.332 120.865 113.82 125.551C106.953 132.658 99.8465 140.015 90.114 140.015ZM0.69749 98.0941L1.15598 98.196C15.9424 101.354 31.2289 104.613 45.2963 109.389C53.0594 112.015 59.3012 118.353 65.3345 124.464C72.983 132.228 80.2147 139.562 90.114 139.562C100.013 139.562 106.411 132.59 113.539 125.223C118.082 120.526 122.771 115.659 128.252 112.83C141.486 105.994 158.336 102.508 173.205 99.4183C175.352 98.9769 177.467 98.5355 179.541 98.0941L142.017 0.626049C134.265 4.64383 126.21 8.16364 118.072 11.1062C115.623 11.989 113.601 13.5961 112.226 15.7465C106.755 24.2801 100.576 32.3722 93.8757 39.7853C92.8753 40.8831 91.5519 41.4943 90.1244 41.4943C88.6968 41.4943 87.3734 40.8831 86.3731 39.7853C79.6728 32.3722 73.4936 24.2801 68.0229 15.7465C66.637 13.5961 64.6155 11.989 62.1772 11.1062C54.0389 8.16364 45.9736 4.64383 38.2314 0.626049L0.69749 98.0941Z" fill="#525252"/>
<path id="Vector_3" d="M90.1139 125.596C80.5377 125.596 73.7645 118.217 66.5849 110.396C60.9997 104.308 55.2164 98.0149 47.9535 95.4005C34.6051 90.6018 19.3602 87.1386 5.91805 84.0715L6.00141 83.6301C19.4644 86.6972 34.7197 90.1717 48.0889 94.9704C55.4561 97.6188 61.2706 103.957 66.8871 110.08C74.0042 117.832 80.7148 125.143 90.1244 125.143C99.5339 125.143 105.494 118.183 112.111 110.815C116.342 106.107 120.718 101.229 125.887 98.4223C138.37 91.6204 154.459 88.044 168.652 84.8864C170.548 84.4676 172.424 84.0489 174.247 83.6301L174.331 84.0715C172.507 84.4902 170.631 84.909 168.735 85.3278C154.574 88.4854 138.516 92.0505 126.074 98.8185C120.968 101.603 116.613 106.447 112.413 111.132C106.026 118.251 99.4193 125.596 90.1244 125.596H90.1139Z" fill="#525252"/>
<path id="Vector_4" d="M90.1139 114.516C81.9444 114.516 74.9837 105.915 68.2418 97.5848C63.2088 91.3601 58.4467 85.4862 53.372 83.234C44.421 79.2615 31.7499 76.2962 20.5794 73.6818C17.0782 72.8669 13.7749 72.086 10.7947 71.3277L10.8885 70.8864C13.8687 71.6446 17.172 72.4142 20.6627 73.2291C31.8541 75.8435 44.5356 78.8201 53.5179 82.8039C58.6864 85.0901 63.4693 91.0092 68.544 97.2792C75.2129 105.53 82.1216 114.052 90.1035 114.052C98.4814 114.052 105.119 105.632 111.548 97.4943C116.519 91.2016 121.208 85.2598 126.679 82.8039C136.067 78.5937 147.53 75.968 158.617 73.4215C162.379 72.5614 165.932 71.7465 169.308 70.8864L169.402 71.3277C166.015 72.1879 162.462 73.0028 158.7 73.8629C147.634 76.3981 136.192 79.0238 126.835 83.2226C121.448 85.6333 116.79 91.5412 111.861 97.7885C105.38 106.005 98.669 114.505 90.1035 114.505L90.1139 114.516Z" fill="#525252"/>
<path id="Vector_5" d="M88.7489 100.991C80.1626 100.991 75.1817 93.6576 70.3467 86.5614C66.9497 81.5703 63.4276 76.4094 58.676 73.6932C50.3918 68.9737 36.3557 65.4312 25.081 62.5905C21.4651 61.6738 18.0473 60.8136 15.1608 59.9987L15.265 59.5573C18.141 60.3722 21.5589 61.2324 25.1747 62.1378C36.4703 64.9898 50.5377 68.5323 58.8635 73.2744C63.6985 76.0246 67.2519 81.2307 70.6697 86.2671C75.9215 93.9858 80.892 101.263 90.0931 100.448C98.7628 99.6786 103.41 93.3181 108.329 86.5727C111.965 81.5816 115.737 76.4207 121.364 73.2631C130.43 68.1701 142.924 65.0917 153.949 62.3754C157.867 61.4134 161.566 60.4967 164.963 59.546L165.067 59.9874C161.66 60.9494 157.96 61.8548 154.042 62.8282C143.049 65.5331 130.576 68.6115 121.562 73.6818C116.019 76.7942 112.278 81.9211 108.662 86.867C103.681 93.6802 98.9816 100.12 90.1348 100.912C89.6659 100.958 89.197 100.969 88.7489 100.969V100.991Z" fill="#525252"/>
<path id="Vector_6" d="M88.8114 90.8395C80.6002 90.8395 75.5985 83.2793 70.7426 75.968C67.6061 71.2372 64.3654 66.3367 60.2911 63.5412C53.5596 58.9236 38.8045 55.0869 28.0299 52.2801C24.5078 51.3633 21.4651 50.5711 19.0685 49.8581L19.1831 49.4167C21.5797 50.1297 24.612 50.9219 28.1341 51.8387C38.9399 54.6455 53.7367 58.4935 60.5203 63.1564C64.6676 65.9971 67.9292 70.9316 71.0865 75.6964C76.3488 83.6414 81.3296 91.1677 90.0931 90.3189C98.4606 89.5266 103.348 82.77 108.527 75.6285C111.83 71.0675 115.248 66.348 119.697 63.1564C127.085 57.8484 140.142 54.6681 150.625 52.1216C154.449 51.1936 158.054 50.3108 161.034 49.428L161.149 49.8694C158.158 50.7635 154.543 51.635 150.718 52.563C140.267 55.1095 127.252 58.2671 119.926 63.5412C115.529 66.6988 112.132 71.3843 108.85 75.9228C103.608 83.1434 98.669 89.968 90.1244 90.7829C89.6763 90.8282 89.2386 90.8508 88.801 90.8508L88.8114 90.8395Z" fill="#525252"/>
<path id="Vector_7" d="M90.1139 83.9017C84.2369 83.9017 76.5363 74.6099 69.7527 66.4159C65.6054 61.4134 61.6874 56.6826 58.6968 54.6794C50.5064 49.1903 40.5134 46.1911 30.8642 43.2825C27.9882 42.4223 25.2685 41.5961 22.5801 40.7134L22.7051 40.2833C25.3936 41.1661 28.1028 41.9809 30.9788 42.8411C40.6697 45.7497 50.6836 48.7716 58.926 54.2946C61.9583 56.3318 65.8972 61.0852 70.0653 66.1103C76.7968 74.2364 84.4245 83.4377 90.1244 83.4377C96.5224 83.4377 102.035 74.9947 106.891 67.5363C109.652 63.2922 112.267 59.297 114.727 57.3843C123.303 50.7069 137.787 46.3269 149.437 42.7958C152.344 41.913 155.105 41.0755 157.544 40.272L157.669 40.702C155.22 41.5056 152.469 42.3431 149.551 43.2259C137.943 46.7457 123.501 51.1256 114.977 57.7465C112.58 59.6139 109.985 63.5864 107.245 67.7966C102.327 75.3342 96.7517 83.8904 90.1348 83.8904L90.1139 83.9017Z" fill="#525252"/>
<path id="Vector_8" d="M90.114 75.6172C84.5183 75.6172 77.1407 66.28 70.628 58.0521C66.6891 53.061 62.9587 48.3528 60.1661 46.3948C52.3821 40.951 42.8059 37.9066 33.5526 34.9753C30.8434 34.1151 28.2904 33.3116 25.7583 32.4288L25.8833 31.9987C28.405 32.8702 30.958 33.6737 33.6673 34.5339C42.9517 37.4765 52.5592 40.5209 60.3953 46.01C63.24 48.002 66.9809 52.7328 70.951 57.7465C77.4012 65.9066 84.7162 75.1531 90.114 75.1531C96.2619 75.1531 101.535 66.6422 106.192 59.1273C108.798 54.9171 111.257 50.9446 113.549 49.0998C121.708 42.4902 135.619 38.0424 146.8 34.466C149.51 33.5945 152.073 32.7796 154.345 31.9987L154.47 32.4288C152.188 33.221 149.624 34.0359 146.915 34.9074C135.765 38.4724 121.896 42.9203 113.799 49.4733C111.569 51.2728 109.131 55.2226 106.547 59.3876C101.837 66.9931 96.4912 75.6058 90.1244 75.6058L90.114 75.6172Z" fill="#525252"/>
<path id="Vector_9" d="M88.7697 64.888C81.7465 64.888 76.5988 57.7352 71.1803 50.1976C67.2518 44.7311 63.1775 39.0723 58.2696 36.1976C52.3404 32.7231 45.2129 30.4256 38.3251 28.2073C34.9281 27.1095 31.7291 26.0796 28.6551 24.9138L28.7906 24.4838C31.8541 25.6495 35.0532 26.6794 38.4398 27.7772C45.3484 30.0068 52.4863 32.3156 58.4571 35.8015C63.4484 38.7214 67.5436 44.4142 71.5033 49.926C77.1928 57.8484 82.5697 65.3067 90.0827 64.356C97.3144 63.4167 101.503 57.7691 105.942 51.7821C108.672 48.1038 111.486 44.3124 115.175 41.3358C123.844 34.3415 133.535 30.9009 143.799 27.2566C146.29 26.3738 148.874 25.4571 151.416 24.4838L151.552 24.9138C148.999 25.8872 146.415 26.8039 143.924 27.6867C133.692 31.3197 124.032 34.7602 115.414 41.698C111.767 44.6406 108.964 48.4094 106.255 52.065C101.764 58.12 97.5123 63.8467 90.1139 64.7974C89.645 64.854 89.197 64.888 88.7489 64.888H88.7697Z" fill="#525252"/>
<path id="Vector_10" d="M88.7906 58.0068C82.0278 58.0068 77.1407 50.854 71.9722 43.3164C68.2209 37.8386 64.3446 32.1798 59.6346 29.3051C53.9868 25.8645 47.1615 23.5557 40.5551 21.3148C37.3039 20.217 34.2404 19.1758 31.3019 18.01L31.4477 17.58C34.3758 18.7344 37.4394 19.7756 40.6801 20.8734C47.3074 23.1143 54.164 25.4344 59.843 28.8977C64.6259 31.8176 68.5335 37.5104 72.3057 43.0335C77.7346 50.9559 82.8614 58.4369 90.0827 57.4522C97.0747 56.4902 101.055 50.854 105.275 44.8783C107.87 41.2 110.548 37.4086 114.091 34.432C122.386 27.4716 131.691 24.0084 141.548 20.3302C143.914 19.4474 146.363 18.542 148.78 17.58L148.926 18.01C146.498 18.972 144.049 19.8888 141.684 20.7715C131.868 24.4272 122.594 27.8904 114.352 34.8055C110.85 37.7368 108.193 41.5169 105.609 45.1612C101.337 51.2049 97.3039 56.9203 90.1452 57.9049C89.6867 57.9728 89.2386 57.9955 88.801 57.9955L88.7906 58.0068Z" fill="#525252"/>
<path id="Vector_11" d="M88.8114 51.7028C82.2987 51.7028 77.6305 44.5501 72.6912 37.0125C69.1067 31.5347 65.4075 25.8645 60.8851 23.0012C55.5082 19.5945 48.933 17.2631 42.587 15.0222C39.4714 13.913 36.5329 12.8718 33.7298 11.7174L33.8757 11.2986C36.6683 12.4531 39.6068 13.4943 42.7225 14.5921C49.0893 16.8443 55.6853 19.1871 61.1039 22.6163C65.6992 25.525 69.4297 31.2291 73.0351 36.7522C78.2244 44.6859 83.1219 52.1669 90.0931 51.1596C96.8663 50.175 100.659 44.5501 104.671 38.5856C107.141 34.9074 109.704 31.1159 113.101 28.1507C121.052 21.2243 130.003 17.7271 139.475 14.0375C141.726 13.1661 144.049 12.2493 146.352 11.2986L146.498 11.7174C144.185 12.6794 141.861 13.5848 139.61 14.4563C130.17 18.1345 121.25 21.6204 113.362 28.5016C110.006 31.4328 107.464 35.2016 105.005 38.8573C100.941 44.9009 97.0956 50.605 90.1452 51.6123C89.6971 51.6802 89.2491 51.7142 88.8114 51.7142V51.7028Z" fill="#525252"/>
<path id="Vector_12" d="M90.114 46.4741C88.4675 46.4741 86.8211 45.8063 85.5707 44.4595C78.61 36.9785 72.1911 28.7845 66.4807 20.1151C65.4804 18.5986 64.0945 17.5008 62.4585 16.9462C53.4554 13.8904 44.5356 10.1669 35.9493 5.88879L36.1265 5.48135C44.7024 9.75945 53.6013 13.4717 62.594 16.5161C64.3133 17.0933 65.7722 18.2477 66.8246 19.8548C72.5141 28.5016 78.9226 36.6729 85.8625 44.1313C88.207 46.6552 92.0209 46.6438 94.355 44.1313C101.295 36.6729 107.703 28.5016 113.393 19.8548C114.445 18.259 115.915 17.1046 117.634 16.5161C126.616 13.4603 135.526 9.74813 144.101 5.48135L144.279 5.88879C135.692 10.1782 126.773 13.8904 117.769 16.9462C116.133 17.5008 114.748 18.5986 113.747 20.1151C108.037 28.7845 101.618 36.9785 94.6572 44.4595C93.4068 45.8063 91.7604 46.4741 90.114 46.4741Z" fill="#525252"/>
<path id="Vector_13" d="M163.316 101.863C158.179 85.5428 153.084 69.0982 148.165 53.1968C143.247 37.2954 138.162 20.8508 133.014 4.53064L133.41 4.38351C138.547 20.7036 143.643 37.1483 148.561 53.0496C153.48 68.951 158.565 85.3956 163.712 101.716L163.316 101.863Z" fill="#525252"/>
<path id="Vector_14" d="M146.436 106.062C142.434 89.7416 138.506 73.7497 134.577 57.7578C130.649 41.7659 126.72 25.7853 122.719 9.45385L123.125 9.34067C127.127 25.6608 131.055 41.6527 134.984 57.6446C138.912 73.6365 142.841 89.6171 146.842 105.949L146.436 106.062Z" fill="#525252"/>
<path id="Vector_15" d="M131.024 111.63C128.169 95.3213 125.157 78.8088 122.24 62.8508C119.312 46.8476 116.29 30.3011 113.435 13.9583L113.841 13.8791C116.696 30.2219 119.718 46.757 122.646 62.7603C125.564 78.7295 128.575 95.2421 131.43 111.551L131.024 111.63Z" fill="#525252"/>
<path id="Vector_16" d="M114.612 124.283C112.903 107.963 111.1 91.428 109.35 75.4474C107.61 59.4668 105.807 42.9316 104.088 26.6115L104.504 26.5662C106.213 42.8864 108.016 59.4215 109.767 75.4021C111.507 91.3827 113.309 107.918 115.029 124.238L114.612 124.283Z" fill="#525252"/>
<path id="Vector_17" d="M98.0125 138.43C97.4498 122.178 96.8767 105.122 96.3349 88.6212C95.7826 71.9842 95.2095 54.7813 94.6364 38.3932L95.0532 38.3706C95.6263 54.7586 96.1994 71.9616 96.7517 88.5986C97.3039 105.088 97.8666 122.144 98.4293 138.396L98.0125 138.419V138.43Z" fill="#525252"/>
<path id="Vector_18" d="M82.6113 138.215L82.1945 138.193C82.7676 121.873 83.2261 104.794 83.6742 88.2817C84.1223 71.7691 84.5808 54.6907 85.1539 38.3706L85.5707 38.3932C84.9976 54.7134 84.5391 71.7918 84.091 88.3043C83.6429 104.817 83.174 121.895 82.6113 138.215Z" fill="#525252"/>
<path id="Vector_19" d="M65.8138 124.928L65.397 124.872C67.1164 108.518 68.8045 91.7336 70.4509 75.5153C72.0869 59.3536 73.7749 42.6374 75.4839 26.3399L75.9007 26.3851C74.1918 42.6713 72.5037 59.3876 70.8677 75.5493C69.2317 91.7788 67.5332 108.552 65.8138 124.917V124.928Z" fill="#525252"/>
<path id="Vector_20" d="M49.6103 111.63L49.2039 111.551C52.0591 95.2307 54.8309 78.5937 57.5089 62.4999C60.1869 46.4062 62.9587 29.7691 65.8139 13.449L66.2202 13.5282C63.3651 29.8484 60.5933 46.4854 57.9153 62.5792C55.2373 78.6729 52.4655 95.31 49.6103 111.63Z" fill="#525252"/>
<path id="Vector_21" d="M34.1883 106.062L33.7819 105.949C37.7833 89.6172 41.5763 73.2404 45.2546 57.407C48.9226 41.5848 52.7155 25.2307 56.7169 8.92194L57.1233 9.03511C53.1324 25.3439 49.3394 41.698 45.6714 57.5202C42.0035 73.3536 38.2001 89.7303 34.1987 106.062H34.1883Z" fill="#525252"/>
<path id="Vector_22" d="M16.9114 101.863L16.5155 101.716C21.6527 85.3957 26.7169 69.3245 31.7708 53.2647C36.8246 37.2049 41.8889 21.145 47.0261 4.8136L47.422 4.96073C42.2848 21.2809 37.2206 37.352 32.1667 53.4118C27.1129 69.4716 22.0486 85.5315 16.9114 101.863Z" fill="#525252"/>
</g>
<defs>
<clipPath id="clip0_169_740">
<rect width="180" height="140" fill="white" transform="translate(0.113953 0.0148926)"/>
</clipPath>
</defs>
</svg>
