<svg width="141" height="127" viewBox="0 0 141 127" fill="none" xmlns="http://www.w3.org/2000/svg">
<g id="Vector" opacity="0.8" clip-path="url(#clip0_169_763)">
<g id="Group">
<g id="Group_2">
<g id="Group_3">
<g id="Group_4">
<path id="Vector_2" d="M63.0546 126.796L61.9806 126.684C37.413 124.036 10.8669 101.011 2.8172 75.3491L3.22421 75.2269C6.17503 82.0294 17.6617 86.9786 34.7335 88.8218H34.8805L34.9144 88.9644C40.5221 106.836 50.426 120.452 62.1049 126.328L63.0546 126.806V126.796ZM3.91386 77.2941C12.5176 101.612 37.5035 123.089 60.963 126.175C49.6233 120.024 40.036 106.623 34.5413 89.1884C19.0184 87.498 8.08571 83.2209 3.91386 77.2941Z" fill="#525252"/>
<path id="Vector_3" d="M41.8562 105.94C32.3593 104.922 22.1162 96.0317 19.0071 86.1334L19.4255 86.0315C22.4893 95.7975 32.5741 104.565 41.9127 105.563L41.8675 105.95L41.8562 105.94Z" fill="#525252"/>
<path id="Vector_4" d="M51.1835 118.588C33.3881 116.674 14.1682 100.003 8.34573 81.4184L8.76405 81.3166C14.5526 99.7589 33.6029 116.307 51.24 118.201L51.1948 118.588H51.1835Z" fill="#525252"/>
<path id="Vector_5" d="M37.4695 117.896C31.7601 114.138 30.6747 103.588 34.5074 88.9644L34.9257 89.056C31.1383 103.517 32.1671 113.924 37.7296 117.58L37.4808 117.896H37.4695Z" fill="#525252"/>
</g>
<g id="Group_5">
<path id="Vector_6" d="M35.0049 89.2393L34.6883 89.2088C17.4469 87.3554 5.83585 82.3146 2.8285 75.3694C-1.52424 61.4893 0.22816 49.0655 7.64478 41.2548C13.4786 35.1141 22.4554 32.3442 32.9133 33.4746L33.1507 33.5052L33.0942 33.719C28.6397 50.9393 29.3067 71.072 34.9144 88.9644L35.0049 89.2393ZM28.4249 33.6172C20.0133 33.6172 12.8568 36.3565 7.97265 41.5094C0.657782 49.2183 -1.07201 61.5097 3.23551 75.2472C6.16372 81.9887 17.5261 86.9175 34.417 88.7913C28.8884 70.9804 28.2327 50.98 32.6306 33.8412C31.2061 33.6986 29.8042 33.6274 28.4362 33.6274L28.4249 33.6172Z" fill="#525252"/>
<path id="Vector_7" d="M19.0071 86.1232C17.3226 80.7565 18.0122 75.9397 20.8839 72.905C23.1564 70.5119 26.6386 69.4325 30.7087 69.8704L30.6634 70.2573C26.7403 69.8398 23.3825 70.8683 21.2118 73.1596C18.4305 76.0925 17.7748 80.7769 19.4141 86.0112L18.9958 86.113L19.0071 86.1232Z" fill="#525252"/>
<path id="Vector_8" d="M8.34574 81.4184C5.19141 71.3775 6.46897 62.3753 11.8505 56.7133C16.0789 52.2529 22.5911 50.2468 30.1773 51.0717L30.1321 51.4586C22.6928 50.6541 16.3163 52.6195 12.1784 56.9679C6.89859 62.5281 5.65495 71.4081 8.76405 81.3268L8.34574 81.4286V81.4184Z" fill="#525252"/>
<path id="Vector_9" d="M34.5979 89.168C16.9043 78.5059 4.85225 65.1656 1.53964 52.5686L1.95796 52.477C5.24795 64.9823 17.2321 78.231 34.8353 88.8523L34.5979 89.168Z" fill="#525252"/>
<path id="Vector_10" d="M34.5413 89.1273C21.0083 72.6912 12.8794 53.9027 12.2462 37.5989H12.6759C13.309 53.8212 21.404 72.5181 34.8918 88.9033L34.5526 89.1375L34.5413 89.1273Z" fill="#525252"/>
</g>
<g id="Group_6">
<path id="Vector_11" d="M49.8268 89.9726C44.5696 89.9726 39.482 89.718 34.6883 89.1986H34.5413L34.5074 89.056C28.8771 71.1026 28.2101 50.8985 32.6872 33.6172L32.7324 33.4441L32.9246 33.4644C57.4922 36.1121 84.0382 59.137 92.088 84.7993L92.1445 84.9928L91.9297 85.0437C78.1027 88.2821 63.4051 89.9726 49.8381 89.9726H49.8268ZM34.8805 88.832C51.9184 90.6447 72.5741 89.1477 91.6018 84.7179C83.5408 59.3406 57.3565 36.5908 33.0603 33.8718C28.6623 51.0106 29.3294 71.0313 34.8805 88.832Z" fill="#525252"/>
<path id="Vector_12" d="M53.1507 89.7994C50.0869 80.0335 40.0021 71.2655 30.6635 70.2675L30.7087 69.8806C40.2056 70.8989 50.4486 79.7891 53.5577 89.6976L53.1394 89.7994H53.1507Z" fill="#525252"/>
<path id="Vector_13" d="M72.6081 88.333C66.8195 69.8907 47.7692 53.3426 30.1321 51.4484L30.1773 51.0615C47.9727 52.976 67.1926 69.6463 73.0151 88.2312L72.5967 88.333H72.6081Z" fill="#525252"/>
<path id="Vector_14" d="M34.9257 89.056L34.5074 88.9644C38.3175 74.402 46.5594 57.3956 57.1191 42.3139L57.4808 42.5175C46.9438 57.5687 38.7245 74.5344 34.9257 89.056Z" fill="#525252"/>
</g>
<g id="Group_7">
<path id="Vector_15" d="M66.469 126.928C65.0105 126.928 63.5068 126.847 61.9806 126.684L61.9014 126.664C50.1321 120.747 40.149 107.04 34.5074 89.0662L34.417 88.7913L34.7335 88.8218C51.8618 90.665 72.6646 89.1579 91.8053 84.6771L92.0088 84.6262L92.0653 84.8095C96.4068 98.6692 94.6544 111.093 87.2378 118.904C82.2632 124.148 74.9936 126.928 66.4577 126.928H66.469ZM62.071 126.307C72.3706 127.397 81.2005 124.688 86.9212 118.649C94.2022 110.971 95.9546 98.7507 91.7149 85.0947C72.6985 89.5245 52.0653 91.0316 35.0049 89.2393C40.6239 106.959 50.4712 120.452 62.071 126.307Z" fill="#525252"/>
<path id="Vector_16" d="M43.5973 106.032C43.032 106.032 42.4441 106.001 41.8562 105.94L41.9014 105.553C45.8132 105.971 49.1824 104.942 51.3531 102.651C54.1343 99.7181 54.7901 95.0337 53.1507 89.7994L53.569 89.6976C55.2536 95.0643 54.5639 99.881 51.6923 102.906C49.759 104.952 46.9212 106.032 43.6086 106.032H43.5973Z" fill="#525252"/>
<path id="Vector_17" d="M54.4396 118.761C53.3768 118.761 52.2915 118.7 51.1835 118.588L51.2287 118.201C58.6793 119.006 65.0444 117.04 69.1824 112.692C74.4622 107.132 75.7058 98.2517 72.5967 88.3432L73.015 88.2413C76.1694 98.2822 74.8918 107.284 69.5102 112.946C65.8924 116.755 60.6239 118.771 54.4283 118.771L54.4396 118.761Z" fill="#525252"/>
<path id="Vector_18" d="M93.1394 107.824C73.6142 106.633 52.2801 99.8302 34.5978 89.168L34.8353 88.8524C52.4497 99.4737 73.716 106.246 93.1733 107.437L93.1394 107.824Z" fill="#525252"/>
<path id="Vector_19" d="M82.3763 122.753C65.5193 117.824 48.0857 105.563 34.5413 89.1273L34.8805 88.8931C48.3683 105.268 65.7228 117.478 82.5006 122.376L82.365 122.743L82.3763 122.753Z" fill="#525252"/>
</g>
</g>
<path id="Vector_20" d="M66.469 126.928C65.3384 126.928 64.1965 126.877 63.0207 126.786L63.0546 126.806L61.9353 126.684C53.0716 125.727 43.6651 122.091 34.7222 116.164C32.5741 114.667 29.872 112.682 27.9953 111.215C27.1586 110.574 26.175 109.698 25.3158 108.924C25.0444 108.68 24.7844 108.456 24.547 108.242C22.5006 106.46 19.4028 103.231 17.707 101.276C16.4407 99.82 14.7901 97.712 12.642 94.8301C12.0314 94.0052 11.3418 92.9359 10.7313 91.9787L10.3582 91.4084C9.66852 90.3493 8.78667 88.8524 8.16485 87.6914C7.33952 86.1639 6.28808 84.0559 5.5419 82.4571C4.47915 80.1047 3.56338 77.7116 2.8285 75.3592C-1.52424 61.4893 0.22816 49.0655 7.64478 41.2548C13.4786 35.1141 22.4554 32.3442 32.9133 33.4746C57.4808 36.1223 84.0269 59.1472 92.0767 84.8095C96.4181 98.6692 94.6657 111.093 87.2491 118.904C82.2745 124.148 75.0049 126.928 66.469 126.928ZM62.071 126.307C72.3706 127.397 81.2005 124.688 86.9212 118.649C94.2361 110.94 95.9659 98.6387 91.6584 84.9114C83.6538 59.3916 57.2773 36.4889 32.8568 33.8616C22.5345 32.7516 13.6934 35.4706 7.96134 41.5094C0.657782 49.2183 -1.07201 61.5097 3.23551 75.2472C3.97039 77.5894 4.87485 79.9622 5.9376 82.3044C6.68378 83.9032 7.73523 86.001 8.54925 87.5183C9.17107 88.6691 10.0416 90.1558 10.7313 91.2149L11.1044 91.7852C11.7149 92.7323 12.3932 93.8015 13.0037 94.6162C15.1405 97.4879 16.7912 99.5857 18.0461 101.042C19.7307 102.997 22.8172 106.195 24.8522 107.977C25.101 108.191 25.361 108.425 25.6323 108.659C26.4916 109.423 27.4752 110.289 28.3005 110.93C30.1773 112.386 32.8681 114.372 35.0049 115.859C43.5408 121.511 52.495 125.065 60.9856 126.175C49.6233 120.014 40.0133 106.561 34.53 89.0662L34.9483 88.9644C40.5447 106.816 50.4486 120.431 62.1049 126.307H62.071Z" fill="#525252"/>
</g>
<g id="Group_8">
<g id="Group_9">
<path id="Vector_21" d="M63.0546 126.796L61.9806 126.684C37.413 124.036 10.8669 101.011 2.8172 75.3491L3.22421 75.2269C6.17503 82.0294 17.6617 86.9786 34.7335 88.8218H34.8805L34.9144 88.9644C40.5221 106.836 50.426 120.452 62.1049 126.328L63.0546 126.806V126.796ZM3.91386 77.2941C12.5176 101.612 37.5035 123.089 60.963 126.175C49.6233 120.024 40.036 106.623 34.5413 89.1884C19.0184 87.498 8.08571 83.2209 3.91386 77.2941Z" fill="#525252"/>
<path id="Vector_22" d="M16.4859 99.6876C16.3955 99.6876 16.3503 99.657 16.3163 99.6367C16.2824 99.6061 16.1581 99.5043 16.2372 99.3108L16.6442 99.4432C16.6442 99.4432 16.6442 99.3923 16.6103 99.3515C16.5764 99.3108 16.5311 99.3006 16.5198 99.3006C16.8251 99.3006 19.0523 98.5165 34.5865 88.8524L34.824 89.168C19.6063 98.6387 17.0512 99.6876 16.4746 99.6876H16.4859Z" fill="#525252"/>
</g>
<path id="Vector_23" d="M34.7335 116.164C34.5753 116.063 34.4283 115.961 34.27 115.859C33.2186 115.156 31.9071 114.26 30.9461 113.517C30.7878 113.395 30.6182 113.262 30.4373 113.13C30.1321 112.896 29.8268 112.661 29.5329 112.427C28.8658 111.908 28.1536 111.358 27.5883 110.9C26.8308 110.278 25.915 109.474 25.1123 108.761L24.4566 108.181C21.7319 105.798 18.8036 102.519 17.707 101.286C16.0676 99.4534 15.4119 98.5674 12.642 94.8402C12.0088 93.9848 11.3079 92.8952 10.6861 91.9278L10.2564 91.2557C9.29545 89.7689 8.19878 87.7525 7.33954 86.1741C7.13604 85.7871 6.92123 85.3594 6.69511 84.9012C6.2881 84.0865 5.9037 83.2718 5.53061 82.4571L5.92631 82.3044C6.0959 82.6608 6.2881 83.058 6.4803 83.4653C6.6838 83.893 6.88731 84.3309 7.09081 84.7484C12.2237 95.0032 20.2508 104.657 29.7929 112.122C29.9625 112.254 30.1321 112.386 30.2904 112.509C30.4373 112.621 30.573 112.733 30.7087 112.834C31.9523 113.782 33.2186 114.678 34.4961 115.553C34.6544 115.665 34.8127 115.767 34.9597 115.859L34.7109 116.175L34.7335 116.164Z" fill="#525252"/>
</g>
<g id="Group_10">
<g id="Group_11">
<g id="Group_12">
<path id="Vector_24" d="M2.87372 75.512L2.8285 75.3491C-1.52424 61.4894 0.22816 49.0655 7.64478 41.2548C13.4786 35.1141 22.4554 32.3442 32.9133 33.4746H33.0037L33.0603 33.5459C38.5662 39.8291 44.6713 43.2915 50.6634 43.7905C53.6369 40.9493 58.0348 39.6865 63.1338 40.2364L63.6538 40.2874L63.2468 40.5725C59.3463 43.3118 55.1292 44.4931 50.833 44.1876C50.7426 44.2691 50.6634 44.3607 50.573 44.4524C46.8873 48.3323 46.028 54.5239 48.1988 61.4486L48.244 61.5708L48.1309 61.6523C38.6906 68.2716 21.8449 73.4448 3.07723 75.4815L2.89633 75.5018L2.87372 75.512ZM28.4362 33.6172C20.0247 33.6172 12.8681 36.3565 7.98395 41.5094C0.680393 49.1877 -1.0607 61.4181 3.17898 75.0843C21.7318 73.0476 38.3514 67.9559 47.7239 61.4384C45.5645 54.4424 46.469 48.1694 50.2225 44.208C50.2451 44.1876 50.2564 44.1673 50.279 44.1469C44.3096 43.5461 38.2496 40.0633 32.7663 33.8412C31.2853 33.6885 29.8381 33.607 28.4249 33.607L28.4362 33.6172ZM51.2174 43.8312C55.1066 44.0349 58.9619 42.9656 62.5345 40.5725C57.9444 40.1855 53.976 41.3362 51.2174 43.8312Z" fill="#525252"/>
<path id="Vector_25" d="M20.3073 72.4264C17.0851 62.1513 18.3853 52.9352 23.8912 47.1408C28.2214 42.5786 34.8805 40.5318 42.6476 41.3668L42.6024 41.7538C34.9823 40.9289 28.4588 42.9351 24.2191 47.3954C18.8149 53.088 17.5374 62.1818 20.7256 72.3246L20.3073 72.4264Z" fill="#525252"/>
<path id="Vector_26" d="M35.7963 67.7318C33.3203 59.8294 34.3265 52.7316 38.5549 48.2712C41.8901 44.7579 47.0116 43.1795 53.0037 43.821L52.9585 44.208C47.1247 43.5868 42.1275 45.1143 38.8941 48.5258C34.7561 52.8843 33.7838 59.8498 36.2146 67.63L35.7963 67.7318Z" fill="#525252"/>
<path id="Vector_27" d="M39.1315 46.5298C31.1835 46.5298 21.8901 43.5562 12.3367 37.7415L12.5741 37.4258C28.3118 46.9983 43.2807 48.8109 52.6193 42.2629L52.8794 42.5684C49.0919 45.2263 44.4113 46.5298 39.1315 46.5298Z" fill="#525252"/>
</g>
<g id="Group_13">
<path id="Vector_28" d="M92.2236 85.2881L91.7488 85.0132C87.7691 82.7423 85.5871 79.952 85.4175 76.9377C85.3497 75.5833 85.6889 74.1983 86.4124 72.8032C79.8325 60.9191 69.612 50.3588 58.1705 43.1998C49.8381 46.1327 40.6465 42.8332 32.7098 33.7801L32.3819 33.4135L32.902 33.4644C41.3814 34.3809 50.0982 37.7211 58.2157 42.7619C59.8325 42.1713 61.4153 41.3464 62.9529 40.267L63.0207 40.2161H63.1112C75.5928 41.5705 89.0693 53.2611 93.1507 66.2858L93.1959 66.408L93.0829 66.4894C90.1321 68.5669 88.0405 70.6952 86.8873 72.793C89.0241 76.6729 90.7765 80.6954 92.0654 84.7892L92.2123 85.278L92.2236 85.2881ZM86.6725 73.2513C86.0733 74.4937 85.7906 75.7259 85.8585 76.9275C86.0054 79.6771 87.95 82.2637 91.5114 84.4124C90.279 80.6139 88.651 76.8766 86.6838 73.2615L86.6725 73.2513ZM58.6567 43.0267C69.9851 50.1755 80.0925 60.6238 86.6725 72.3755C87.8596 70.3286 89.8946 68.2716 92.7211 66.2756C88.6397 53.4648 75.4232 41.9982 63.1677 40.6336C61.7092 41.6519 60.1943 42.4564 58.6567 43.0369V43.0267ZM33.3881 33.9023C41.0309 42.4259 49.7929 45.5726 57.7522 42.9249C49.9399 38.1081 41.5623 34.8799 33.3881 33.9023Z" fill="#525252"/>
<path id="Vector_29" d="M86.0733 79.5039C80.149 60.6238 60.6465 43.6886 42.5911 41.7436L42.6363 41.3566C60.85 43.3119 80.5108 60.3794 86.4803 79.3919L86.062 79.4938L86.0733 79.5039Z" fill="#525252"/>
<path id="Vector_30" d="M86.2994 73.1698C81.7545 58.6889 66.7969 45.6948 52.9585 44.208L53.0038 43.821C67.0004 45.3282 82.1275 58.4445 86.7064 73.0578L86.2881 73.1596L86.2994 73.1698Z" fill="#525252"/>
<path id="Vector_31" d="M64.7166 49.4016C63.846 49.4016 63.032 49.2794 62.2858 49.035C59.7307 48.1999 57.9331 45.9188 57.0965 42.4564L57.5148 42.375C58.3175 45.705 60.0247 47.8842 62.4328 48.6785C65.6663 49.7376 70.1321 48.3629 75.3328 44.7172L75.5928 45.0227C71.4549 47.925 67.7466 49.4118 64.7166 49.4118V49.4016Z" fill="#525252"/>
</g>
<g id="Group_14">
<path id="Vector_32" d="M66.469 126.928C65.0105 126.928 63.5068 126.847 61.9806 126.684L61.7884 126.664V126.49C62.2971 108.578 68.2553 93.9135 77.707 87.2841L77.7748 87.2332H77.8652C82.7946 87.7729 87.0456 86.5713 89.9285 83.8523C87.1134 81.8156 85.5645 79.4632 85.4288 76.9479C85.2366 73.4448 87.803 69.7278 92.8341 66.1941L93.0829 66.021L93.1733 66.296C95.3893 73.3429 94.4848 79.6669 90.7086 83.6486C90.6634 83.6995 90.6069 83.7504 90.5617 83.8013C91.0026 84.1069 91.4887 84.4022 91.9862 84.6975L92.054 84.7382L92.0767 84.8095C96.4181 98.6692 94.6657 111.093 87.2491 118.904C82.2745 124.148 75.0049 126.928 66.469 126.928ZM62.2293 126.317C72.4611 127.366 81.2344 124.657 86.9325 118.649C94.2361 110.951 95.9659 98.6794 91.6923 84.9826C91.1948 84.6975 90.72 84.392 90.2677 84.0865C87.3056 86.8971 82.9529 88.1497 77.9105 87.6303C68.6171 94.1987 62.772 108.639 62.2293 126.317ZM92.8454 66.6829C88.097 70.074 85.6889 73.6179 85.8584 76.9275C85.9828 79.3308 87.4865 81.5915 90.2225 83.5569C90.279 83.506 90.3356 83.4449 90.3808 83.394C94.0099 79.565 94.9031 73.4855 92.8454 66.6727V66.6829Z" fill="#525252"/>
<path id="Vector_33" d="M67.4752 110.635C66.3898 110.635 65.2819 110.574 64.14 110.452L64.1852 110.065C71.8053 110.879 78.3288 108.873 82.5685 104.423C87.9727 98.7303 89.2502 89.6467 86.062 79.4937L86.4803 79.3919C89.7024 89.667 88.4023 98.8831 82.8963 104.677C79.1993 108.578 73.8065 110.635 67.4752 110.635Z" fill="#525252"/>
<path id="Vector_34" d="M72.0654 97.1111C71.2287 97.1111 70.3695 97.0602 69.4989 96.9686L69.5442 96.5816C75.378 97.213 80.3751 95.6753 83.6086 92.2638C87.7465 87.9053 88.7188 80.9398 86.2881 73.1596L86.7064 73.0578C89.1824 80.9602 88.1761 88.058 83.9478 92.5184C81.0987 95.5225 76.9382 97.1111 72.0654 97.1111Z" fill="#525252"/>
<path id="Vector_35" d="M92.9698 107.743C83.7782 95.6244 83.9591 84.4022 93.4786 77.732L93.7386 78.0375C84.4339 84.5651 84.2756 95.5938 93.3203 107.529L92.9698 107.743Z" fill="#525252"/>
</g>
<g id="Group_15">
<path id="Vector_36" d="M47.8596 61.8356L47.7691 61.5606C45.5645 54.5137 46.4577 48.1897 50.2338 44.208C50.279 44.1571 50.3356 44.1062 50.3808 44.0552C49.9399 43.7497 49.4537 43.4544 48.9562 43.1591L48.8884 43.1184L48.8658 43.0471C44.5244 29.1874 46.2768 16.7635 53.6934 8.9528C59.5159 2.81216 68.4927 0.0524365 78.9506 1.1828L79.1428 1.20317V1.37629C78.634 19.289 72.6759 33.9532 63.2242 40.5827L63.1564 40.6336H63.0659C58.1366 40.0939 53.8856 41.2955 51.0026 44.0145C53.8177 46.0512 55.3666 48.4036 55.5023 50.9189C55.6945 54.422 53.1281 58.139 48.097 61.6727L47.8483 61.8458L47.8596 61.8356ZM50.72 44.2895C50.6634 44.3404 50.6182 44.4015 50.5617 44.4524C46.9325 48.2814 46.0393 54.3609 48.097 61.1737C52.8454 57.7826 55.2536 54.2387 55.084 50.9291C54.9596 48.5258 53.456 46.2651 50.72 44.2997V44.2895ZM49.2502 42.874C49.7477 43.1591 50.2225 43.4646 50.6747 43.7701C53.6369 40.9595 57.9896 39.7069 63.032 40.2263C72.3254 33.6579 78.1705 19.2177 78.7132 1.53922C68.4814 0.480143 59.7081 3.19913 54.0099 9.20738C46.7064 16.9061 44.9766 29.1772 49.2502 42.874Z" fill="#525252"/>
<path id="Vector_37" d="M52.8794 42.5684L52.6193 42.2629C61.9579 35.715 64.0721 21.9163 58.2948 5.34783L58.7019 5.23581C64.5357 21.9571 62.3649 35.9186 52.8794 42.5684Z" fill="#525252"/>
</g>
<g id="Group_16">
<path id="Vector_38" d="M92.8455 66.6829L92.755 66.408C88.7075 53.5157 75.4006 41.9574 63.0772 40.6234L62.5572 40.5725L62.9642 40.2873C72.3254 33.719 78.2157 19.177 78.7132 1.37627V1.16241L78.9506 1.18278C103.518 3.83049 130.064 26.8553 138.114 52.5177L138.182 52.7315L137.933 52.7621C119.233 54.7886 102.467 59.9313 93.0942 66.5098L92.8455 66.6829ZM63.6312 40.2975C75.8754 41.8861 88.9563 53.2814 93.0829 66.021C102.523 59.5137 119.131 54.4322 137.639 52.3955C129.578 27.0386 103.416 4.32948 79.1428 1.59012C78.6001 19.1566 72.8228 33.5662 63.6312 40.2975Z" fill="#525252"/>
<path id="Vector_39" d="M75.5815 45.0125L75.3214 44.707C84.7053 38.1284 95.1066 25.1649 103.145 10.0322L103.529 10.1952C95.4684 25.3685 85.0218 38.383 75.5815 45.0023V45.0125Z" fill="#525252"/>
<path id="Vector_40" d="M86.2994 54.31L86.0394 54.0045C95.4458 47.4056 109.782 37.8026 124.377 28.3217L124.626 28.6374C110.042 38.1081 95.7171 47.7111 86.2994 54.31Z" fill="#525252"/>
</g>
<g id="Group_17">
<path id="Vector_41" d="M112.506 94.6366C111.048 94.6366 109.544 94.5551 108.018 94.3922H107.927L107.871 94.3209C102.365 88.0479 96.2598 84.5753 90.2677 84.0763C87.2943 86.9175 82.8963 88.1701 77.7974 87.6303L77.2773 87.5794L77.6844 87.2943C81.5849 84.5549 85.8132 83.3737 90.0981 83.6792C90.1886 83.5977 90.2677 83.506 90.3582 83.4144C94.0439 79.5345 94.9031 73.3429 92.7324 66.4182L92.6872 66.296L92.8002 66.2145C102.241 59.5952 119.086 54.422 137.854 52.3853L138.035 52.365L138.08 52.5279C142.421 66.3876 140.669 78.8115 133.252 86.6222C128.278 91.8667 121.008 94.6468 112.472 94.6468L112.506 94.6366ZM108.154 94.0154C118.431 95.105 127.238 92.386 132.959 86.3574C140.251 78.6791 141.992 66.4487 137.741 52.7825C119.188 54.8192 102.568 59.9109 93.1959 66.4283C95.3553 73.4244 94.4509 79.6974 90.6973 83.6588C90.6747 83.6792 90.6634 83.6995 90.6408 83.7097C96.6103 84.3105 102.67 87.7933 108.154 94.0154ZM78.3966 87.2943C82.9868 87.6711 86.9551 86.5305 89.7137 84.0356C85.8132 83.8217 81.9693 84.9012 78.3966 87.2943Z" fill="#525252"/>
<path id="Vector_42" d="M93.7386 78.0375L93.4786 77.732C102.942 71.0924 120.047 70.125 139.256 75.1556L139.131 75.5324C120.059 70.5425 103.1 71.4794 93.7386 78.0477V78.0375Z" fill="#525252"/>
</g>
</g>
<path id="Vector_43" d="M87.136 87.111L86.729 86.9888C86.8986 86.4185 86.9551 85.5122 86.8873 84.3004C86.8195 83.0885 86.6273 82.2026 86.3785 80.9907C86.2203 80.2168 85.9602 79.2799 85.7341 78.6282C85.2253 77.1414 84.547 75.4 84.0269 74.178C83.8573 73.7808 82.2745 70.4814 81.0874 68.6483C80.1151 67.1412 78.6906 65.0739 77.5487 63.5057C76.9947 62.7419 76.192 61.7847 75.4797 60.9598C74.564 59.8804 73.8517 59.0962 73.3203 58.5565C71.4096 56.6318 69.872 55.1552 68.7415 54.1573C68.097 53.587 67.1699 52.8028 66.4238 52.2428L65.7567 51.7438C65.2027 51.3262 64.6035 50.868 64.0948 50.5116C63.5973 50.1551 62.9416 49.7274 62.365 49.3405L61.811 48.9739C61.811 48.9739 58.9845 47.1001 55.3667 45.5929C54.4735 45.2263 52.1897 44.3302 50.1773 44.1163C49.8381 44.0756 49.6911 44.0756 49.5442 44.0858L49.5103 43.6988C49.7929 43.6683 50.8104 43.5053 52.0541 42.6296C54.9484 40.603 58.7697 39.7782 63.0999 40.2364C75.5815 41.5807 89.058 53.2713 93.1394 66.296C95.7058 74.4631 94.0891 81.5406 88.8319 85.227C88.391 85.5631 88.1309 85.7566 87.8031 86.1232C87.3508 86.612 87.1813 86.9481 87.1134 87.111H87.136ZM50.7087 43.7905C52.6533 44.0858 54.7222 44.8903 55.5589 45.2365C59.2106 46.764 62.0484 48.648 62.071 48.6684L62.625 49.035C63.2016 49.4219 63.8573 49.8496 64.3661 50.2061C64.8749 50.5625 65.4741 51.0207 66.0394 51.4484L66.6951 51.9474C67.4526 52.5177 68.391 53.312 69.0354 53.8823C70.166 54.8803 71.7149 56.3671 73.6369 58.2917C74.1796 58.8417 74.8918 59.636 75.8189 60.7256C76.5312 61.5606 77.3339 62.5179 77.8992 63.302C79.0524 64.8805 80.4769 66.9579 81.4492 68.465C82.6589 70.349 84.2417 73.6281 84.4113 74.0558C84.9314 75.2778 85.6097 77.0293 86.1298 78.5263C86.3559 79.1882 86.616 80.1455 86.7742 80.9093C87.0343 82.1618 87.2265 83.058 87.2943 84.3004C87.3395 84.9928 87.3395 85.6038 87.2943 86.1028C87.3508 86.0315 87.4074 85.9603 87.4752 85.889C87.837 85.4918 88.1196 85.278 88.5493 84.9521C93.6821 81.3471 95.2423 74.4224 92.7211 66.408C88.6736 53.5157 75.3667 41.9574 63.0433 40.6234C58.8262 40.1652 55.1066 40.9696 52.3028 42.9351C51.6923 43.3526 51.1383 43.6275 50.6748 43.7905H50.7087Z" fill="#525252"/>
</g>
<g id="Group_18">
<g id="Group_19">
<g id="Group_20">
<path id="Vector_44" d="M2.87372 75.512L2.8285 75.3491C-1.52424 61.4894 0.22816 49.0655 7.64478 41.2548C13.4786 35.1141 22.4554 32.3442 32.9133 33.4746H33.0037L33.0603 33.5459C38.5662 39.8291 44.6713 43.2915 50.6634 43.7905C53.6369 40.9493 58.0348 39.6865 63.1338 40.2364L63.6538 40.2874L63.2468 40.5725C59.3463 43.3118 55.1292 44.4931 50.833 44.1876C50.7426 44.2691 50.6634 44.3607 50.573 44.4524C46.8873 48.3323 46.028 54.5239 48.1988 61.4486L48.244 61.5708L48.1309 61.6523C38.6906 68.2716 21.8449 73.4448 3.07723 75.4815L2.89633 75.5018L2.87372 75.512ZM28.4362 33.6172C20.0247 33.6172 12.8681 36.3565 7.98395 41.5094C0.680393 49.1877 -1.0607 61.4181 3.17898 75.0843C21.7318 73.0476 38.3514 67.9559 47.7239 61.4384C45.5645 54.4424 46.469 48.1694 50.2225 44.208C50.2451 44.1876 50.2564 44.1673 50.279 44.1469C44.3096 43.5461 38.2496 40.0633 32.7663 33.8412C31.2853 33.6885 29.8381 33.607 28.4249 33.607L28.4362 33.6172ZM51.2174 43.8312C55.1066 44.0349 58.9619 42.9656 62.5345 40.5725C57.9444 40.1855 53.976 41.3362 51.2174 43.8312Z" fill="#525252"/>
<path id="Vector_45" d="M20.3073 72.4264C17.0851 62.1513 18.3853 52.9352 23.8912 47.1408C28.2214 42.5786 34.8805 40.5318 42.6476 41.3668L42.6024 41.7538C34.9823 40.9289 28.4588 42.9351 24.2191 47.3954C18.8149 53.088 17.5374 62.1818 20.7256 72.3246L20.3073 72.4264Z" fill="#525252"/>
<path id="Vector_46" d="M35.7963 67.7318C33.3203 59.8294 34.3265 52.7316 38.5549 48.2712C41.8901 44.7579 47.0116 43.1795 53.0037 43.821L52.9585 44.208C47.1247 43.5868 42.1275 45.1143 38.8941 48.5258C34.7561 52.8843 33.7838 59.8498 36.2146 67.63L35.7963 67.7318Z" fill="#525252"/>
<path id="Vector_47" d="M39.1315 46.5298C31.1835 46.5298 21.8901 43.5562 12.3367 37.7415L12.5741 37.4258C28.3118 46.9983 43.2807 48.8109 52.6193 42.2629L52.8794 42.5684C49.0919 45.2263 44.4113 46.5298 39.1315 46.5298Z" fill="#525252"/>
</g>
<g id="Group_21">
<path id="Vector_48" d="M92.2236 85.2881L91.7488 85.0132C87.7691 82.7423 85.5871 79.952 85.4175 76.9377C85.3497 75.5833 85.6889 74.1983 86.4124 72.8032C79.8325 60.9191 69.612 50.3588 58.1705 43.1998C49.8381 46.1327 40.6465 42.8332 32.7098 33.7801L32.3819 33.4135L32.902 33.4644C41.3814 34.3809 50.0982 37.7211 58.2157 42.7619C59.8325 42.1713 61.4153 41.3464 62.9529 40.267L63.0207 40.2161H63.1112C75.5928 41.5705 89.0693 53.2611 93.1507 66.2858L93.1959 66.408L93.0829 66.4894C90.1321 68.5669 88.0405 70.6952 86.8873 72.793C89.0241 76.6729 90.7765 80.6954 92.0654 84.7892L92.2123 85.278L92.2236 85.2881ZM86.6725 73.2513C86.0733 74.4937 85.7906 75.7259 85.8585 76.9275C86.0054 79.6771 87.95 82.2637 91.5114 84.4124C90.279 80.6139 88.651 76.8766 86.6838 73.2615L86.6725 73.2513ZM58.6567 43.0267C69.9851 50.1755 80.0925 60.6238 86.6725 72.3755C87.8596 70.3286 89.8946 68.2716 92.7211 66.2756C88.6397 53.4648 75.4232 41.9982 63.1677 40.6336C61.7092 41.6519 60.1943 42.4564 58.6567 43.0369V43.0267ZM33.3881 33.9023C41.0309 42.4259 49.7929 45.5726 57.7522 42.9249C49.9399 38.1081 41.5623 34.8799 33.3881 33.9023Z" fill="#525252"/>
<path id="Vector_49" d="M86.0733 79.5039C80.149 60.6238 60.6465 43.6886 42.5911 41.7436L42.6363 41.3566C60.85 43.3119 80.5108 60.3794 86.4803 79.3919L86.062 79.4938L86.0733 79.5039Z" fill="#525252"/>
<path id="Vector_50" d="M86.2994 73.1698C81.7545 58.6889 66.7969 45.6948 52.9585 44.208L53.0038 43.821C67.0004 45.3282 82.1275 58.4445 86.7064 73.0578L86.2881 73.1596L86.2994 73.1698Z" fill="#525252"/>
<path id="Vector_51" d="M64.7166 49.4016C63.846 49.4016 63.032 49.2794 62.2858 49.035C59.7307 48.1999 57.9331 45.9188 57.0965 42.4564L57.5148 42.375C58.3175 45.705 60.0247 47.8842 62.4328 48.6785C65.6663 49.7376 70.1321 48.3629 75.3328 44.7172L75.5928 45.0227C71.4549 47.925 67.7466 49.4118 64.7166 49.4118V49.4016Z" fill="#525252"/>
</g>
<g id="Group_22">
<path id="Vector_52" d="M66.469 126.928C65.0105 126.928 63.5068 126.847 61.9806 126.684L61.7884 126.664V126.49C62.2971 108.578 68.2553 93.9135 77.707 87.2841L77.7748 87.2332H77.8652C82.7946 87.7729 87.0456 86.5713 89.9285 83.8523C87.1134 81.8156 85.5645 79.4632 85.4288 76.9479C85.2366 73.4448 87.803 69.7278 92.8341 66.1941L93.0829 66.021L93.1733 66.296C95.3893 73.3429 94.4848 79.6669 90.7086 83.6486C90.6634 83.6995 90.6069 83.7504 90.5617 83.8013C91.0026 84.1069 91.4887 84.4022 91.9862 84.6975L92.054 84.7382L92.0767 84.8095C96.4181 98.6692 94.6657 111.093 87.2491 118.904C82.2745 124.148 75.0049 126.928 66.469 126.928ZM62.2293 126.317C72.4611 127.366 81.2344 124.657 86.9325 118.649C94.2361 110.951 95.9659 98.6794 91.6923 84.9826C91.1948 84.6975 90.72 84.392 90.2677 84.0865C87.3056 86.8971 82.9529 88.1497 77.9105 87.6303C68.6171 94.1987 62.772 108.639 62.2293 126.317ZM92.8454 66.6829C88.097 70.074 85.6889 73.6179 85.8584 76.9275C85.9828 79.3308 87.4865 81.5915 90.2225 83.5569C90.279 83.506 90.3356 83.4449 90.3808 83.394C94.0099 79.565 94.9031 73.4855 92.8454 66.6727V66.6829Z" fill="#525252"/>
<path id="Vector_53" d="M67.4752 110.635C66.3898 110.635 65.2819 110.574 64.14 110.452L64.1852 110.065C71.8053 110.879 78.3288 108.873 82.5685 104.423C87.9727 98.7303 89.2502 89.6467 86.062 79.4937L86.4803 79.3919C89.7024 89.667 88.4023 98.8831 82.8963 104.677C79.1993 108.578 73.8065 110.635 67.4752 110.635Z" fill="#525252"/>
<path id="Vector_54" d="M72.0654 97.1111C71.2287 97.1111 70.3695 97.0602 69.4989 96.9686L69.5442 96.5816C75.378 97.213 80.3751 95.6753 83.6086 92.2638C87.7465 87.9053 88.7188 80.9398 86.2881 73.1596L86.7064 73.0578C89.1824 80.9602 88.1761 88.058 83.9478 92.5184C81.0987 95.5225 76.9382 97.1111 72.0654 97.1111Z" fill="#525252"/>
<path id="Vector_55" d="M92.9698 107.743C83.7782 95.6244 83.9591 84.4022 93.4786 77.732L93.7386 78.0375C84.4339 84.5651 84.2756 95.5938 93.3203 107.529L92.9698 107.743Z" fill="#525252"/>
</g>
<g id="Group_23">
<path id="Vector_56" d="M47.8596 61.8356L47.7691 61.5606C45.5645 54.5137 46.4577 48.1897 50.2338 44.208C50.279 44.1571 50.3356 44.1062 50.3808 44.0552C49.9399 43.7497 49.4537 43.4544 48.9562 43.1591L48.8884 43.1184L48.8658 43.0471C44.5244 29.1874 46.2768 16.7635 53.6934 8.9528C59.5159 2.81216 68.4927 0.0524365 78.9506 1.1828L79.1428 1.20317V1.37629C78.634 19.289 72.6759 33.9532 63.2242 40.5827L63.1564 40.6336H63.0659C58.1366 40.0939 53.8856 41.2955 51.0026 44.0145C53.8177 46.0512 55.3666 48.4036 55.5023 50.9189C55.6945 54.422 53.1281 58.139 48.097 61.6727L47.8483 61.8458L47.8596 61.8356ZM50.72 44.2895C50.6634 44.3404 50.6182 44.4015 50.5617 44.4524C46.9325 48.2814 46.0393 54.3609 48.097 61.1737C52.8454 57.7826 55.2536 54.2387 55.084 50.9291C54.9596 48.5258 53.456 46.2651 50.72 44.2997V44.2895ZM49.2502 42.874C49.7477 43.1591 50.2225 43.4646 50.6747 43.7701C53.6369 40.9595 57.9896 39.7069 63.032 40.2263C72.3254 33.6579 78.1705 19.2177 78.7132 1.53922C68.4814 0.480143 59.7081 3.19913 54.0099 9.20738C46.7064 16.9061 44.9766 29.1772 49.2502 42.874Z" fill="#525252"/>
<path id="Vector_57" d="M52.8794 42.5684L52.6193 42.2629C61.9579 35.715 64.0721 21.9163 58.2948 5.34783L58.7019 5.23581C64.5357 21.9571 62.3649 35.9186 52.8794 42.5684Z" fill="#525252"/>
</g>
<g id="Group_24">
<path id="Vector_58" d="M92.8455 66.6829L92.755 66.408C88.7075 53.5157 75.4006 41.9574 63.0772 40.6234L62.5572 40.5725L62.9642 40.2873C72.3254 33.719 78.2157 19.177 78.7132 1.37627V1.16241L78.9506 1.18278C103.518 3.83049 130.064 26.8553 138.114 52.5177L138.182 52.7315L137.933 52.7621C119.233 54.7886 102.467 59.9313 93.0942 66.5098L92.8455 66.6829ZM63.6312 40.2975C75.8754 41.8861 88.9563 53.2814 93.0829 66.021C102.523 59.5137 119.131 54.4322 137.639 52.3955C129.578 27.0386 103.416 4.32948 79.1428 1.59012C78.6001 19.1566 72.8228 33.5662 63.6312 40.2975Z" fill="#525252"/>
<path id="Vector_59" d="M75.5815 45.0125L75.3214 44.707C84.7053 38.1284 95.1066 25.1649 103.145 10.0322L103.529 10.1952C95.4684 25.3685 85.0218 38.383 75.5815 45.0023V45.0125Z" fill="#525252"/>
<path id="Vector_60" d="M86.2994 54.31L86.0394 54.0045C95.4458 47.4056 109.782 37.8026 124.377 28.3217L124.626 28.6374C110.042 38.1081 95.7171 47.7111 86.2994 54.31Z" fill="#525252"/>
</g>
<g id="Group_25">
<path id="Vector_61" d="M112.506 94.6366C111.048 94.6366 109.544 94.5551 108.018 94.3922H107.927L107.871 94.3209C102.365 88.0479 96.2598 84.5753 90.2677 84.0763C87.2943 86.9175 82.8963 88.1701 77.7974 87.6303L77.2773 87.5794L77.6844 87.2943C81.5849 84.5549 85.8132 83.3737 90.0981 83.6792C90.1886 83.5977 90.2677 83.506 90.3582 83.4144C94.0439 79.5345 94.9031 73.3429 92.7324 66.4182L92.6872 66.296L92.8002 66.2145C102.241 59.5952 119.086 54.422 137.854 52.3853L138.035 52.365L138.08 52.5279C142.421 66.3876 140.669 78.8115 133.252 86.6222C128.278 91.8667 121.008 94.6468 112.472 94.6468L112.506 94.6366ZM108.154 94.0154C118.431 95.105 127.238 92.386 132.959 86.3574C140.251 78.6791 141.992 66.4487 137.741 52.7825C119.188 54.8192 102.568 59.9109 93.1959 66.4283C95.3553 73.4244 94.4509 79.6974 90.6973 83.6588C90.6747 83.6792 90.6634 83.6995 90.6408 83.7097C96.6103 84.3105 102.67 87.7933 108.154 94.0154ZM78.3966 87.2943C82.9868 87.6711 86.9551 86.5305 89.7137 84.0356C85.8132 83.8217 81.9693 84.9012 78.3966 87.2943Z" fill="#525252"/>
<path id="Vector_62" d="M93.7386 78.0375L93.4786 77.732C102.942 71.0924 120.047 70.125 139.256 75.1556L139.131 75.5324C120.059 70.5425 103.1 71.4794 93.7386 78.0477V78.0375Z" fill="#525252"/>
</g>
</g>
<path id="Vector_63" d="M83.4164 122.173L83.326 121.918C77.5487 106.47 78.9054 93.3738 86.876 86.3065C86.9778 85.4511 86.8986 84.4124 86.8534 83.7912C86.7856 82.9256 86.7403 82.6913 86.2542 80.4714C86.1072 79.8094 85.8585 78.9438 85.6324 78.2921C85.1462 76.9479 84.4339 75.1454 83.8687 73.8215C83.5182 72.9967 82.9755 71.9376 82.5346 71.1637C82.3989 70.9193 82.2406 70.6545 82.0823 70.3693C81.7319 69.7583 81.3814 69.127 81.0648 68.6076C80.7369 68.0679 80.3073 67.4263 79.9003 66.8051C79.7194 66.5302 79.5385 66.2552 79.3802 66.0108C79.0298 65.4813 77.153 62.8641 75.491 60.9598C74.5074 59.8294 72.2124 57.1817 68.7189 54.1369C65.6889 51.4892 63.3938 50.0024 61.5397 48.8007C61.4153 48.7193 58.4192 46.7844 54.7675 45.3485C53.1847 44.7273 51.5679 44.2895 50.3808 44.1367C40.8161 49.3303 26.4238 47.2936 11.2514 38.4645L11.0026 38.3219L11.24 38.159C16.9043 34.1773 24.4 32.5683 32.9133 33.4848C57.4809 36.1325 84.0269 59.1573 92.0767 84.8197C97.1078 100.879 93.9648 114.779 83.6538 122.02L83.4164 122.183V122.173ZM86.7516 86.9582C79.3237 93.9645 78.1253 106.623 83.6312 121.521C93.6143 114.342 96.6103 100.675 91.6697 84.9012C83.6651 59.3814 57.2887 36.4787 32.8681 33.8514C24.5922 32.9654 17.3 34.4929 11.7488 38.2812C26.4012 46.7437 40.2847 48.8109 49.6459 44.0654C49.612 44.0654 49.5894 44.0654 49.5555 44.0654L49.5329 43.6784C49.7816 43.6581 50.2451 43.5562 50.7765 43.3322C51.3192 43.1082 51.5905 42.935 52.0767 42.6092L52.3367 42.9147L52.2237 42.7721L52.348 42.9147C51.8958 43.2304 51.4323 43.5359 50.9461 43.8108C52.1106 44.0145 53.5577 44.4218 54.9597 44.9819C58.6454 46.428 61.6753 48.3934 61.811 48.4749C63.6651 49.6867 65.9828 51.1837 69.0354 53.8416C72.5515 56.9068 74.8579 59.5749 75.8415 60.7052C77.5035 62.6299 79.4142 65.2674 79.7533 65.797C79.9116 66.0414 80.0925 66.3061 80.2734 66.5913C80.6804 67.2125 81.11 67.854 81.4492 68.4039C81.7658 68.9233 82.1276 69.5547 82.478 70.1759C82.6363 70.4508 82.7833 70.7258 82.9303 70.96C83.3712 71.7339 83.9139 72.8134 84.2757 73.6484C84.8523 74.9723 85.5645 76.7849 86.0507 78.1393C86.2881 78.7911 86.5481 79.6872 86.6838 80.3491C87.17 82.5997 87.2265 82.8441 87.2943 83.7301C87.3282 84.2596 87.3961 85.0946 87.3508 85.8788C87.7579 85.5427 88.1875 85.2169 88.6171 84.9114L88.8884 85.2168C88.538 85.4714 87.6109 86.1537 87.1587 87.111L86.7516 86.9888C86.7516 86.9888 86.7516 86.9684 86.7516 86.9582Z" fill="#525252"/>
</g>
<g id="Group_26">
<g id="Group_27">
<g id="Group_28">
<path id="Vector_64" d="M62.218 126.704L61.9806 126.684C37.413 124.036 10.867 101.011 2.81722 75.3491L2.74939 75.1352L2.99812 75.1046C21.698 73.0781 38.4645 67.9355 47.837 61.357L48.0857 61.1838L48.1762 61.4588C52.2237 74.3511 65.5306 85.9093 77.854 87.2434L78.374 87.2943L77.967 87.5794C68.6058 94.1478 62.7155 108.69 62.218 126.49V126.704ZM3.30338 75.4611C11.3644 100.818 37.5148 123.527 61.7997 126.277C62.3424 108.71 68.1197 94.3005 77.3113 87.5692C65.0671 85.9806 51.9862 74.5853 47.8596 61.8458C38.4193 68.353 21.811 73.4346 3.30338 75.4713V75.4611Z" fill="#525252"/>
<path id="Vector_65" d="M64.14 110.462C45.9263 108.506 26.2655 91.4389 20.296 72.4264L20.7143 72.3246C26.6386 91.2047 46.1411 108.14 64.1965 110.085L64.1513 110.472L64.14 110.462Z" fill="#525252"/>
<path id="Vector_66" d="M69.499 96.9686C55.5023 95.4614 40.3752 82.3451 35.7963 67.7318L36.2146 67.63C40.7596 82.1109 55.7172 95.105 69.5555 96.5918L69.5103 96.9788L69.499 96.9686Z" fill="#525252"/>
<path id="Vector_67" d="M37.7861 117.824L37.4017 117.661C45.4628 102.478 55.9094 89.4735 65.3497 82.8543L65.6098 83.1598C56.2259 89.7383 45.8246 102.702 37.7861 117.835V117.824Z" fill="#525252"/>
</g>
<g id="Group_29">
<path id="Vector_68" d="M2.87375 75.512L2.82853 75.3491C-1.52421 61.4894 0.228191 49.0655 7.64481 41.2548C13.4786 35.1141 22.4554 32.3442 32.9133 33.4746H33.0038L33.0603 33.5459C38.5662 39.8291 44.6714 43.2915 50.6635 43.7905C53.6369 40.9493 58.0349 39.6865 63.1338 40.2364L63.6539 40.2874L63.2468 40.5725C59.3463 43.3118 55.1293 44.4931 50.833 44.1876C50.7426 44.2691 50.6635 44.3607 50.573 44.4524C46.8873 48.3323 46.0281 54.5239 48.1988 61.4486L48.244 61.5708L48.131 61.6523C38.6906 68.2716 21.8449 73.4448 3.07726 75.4815L2.89637 75.5018L2.87375 75.512ZM28.4362 33.6172C20.0247 33.6172 12.8681 36.3565 7.98398 41.5094C0.680424 49.1877 -1.06067 61.4181 3.17901 75.0843C21.7319 73.0476 38.3514 67.9559 47.7239 61.4384C45.5645 54.4424 46.469 48.1694 50.2225 44.208C50.2451 44.1876 50.2565 44.1673 50.2791 44.1469C44.3096 43.5461 38.2497 40.0633 32.7663 33.8412C31.2853 33.6885 29.8381 33.607 28.4249 33.607L28.4362 33.6172ZM51.2174 43.8312C55.1067 44.0349 58.9619 42.9656 62.5346 40.5725C57.9444 40.1855 53.9761 41.3362 51.2174 43.8312Z" fill="#525252"/>
<path id="Vector_69" d="M20.3073 72.4264C17.0852 62.1513 18.3853 52.9352 23.8913 47.1408C28.2214 42.5786 34.8805 40.5318 42.6476 41.3668L42.6024 41.7538C34.9823 40.9289 28.4588 42.9351 24.2191 47.3954C18.815 53.088 17.5374 62.1818 20.7256 72.3246L20.3073 72.4264Z" fill="#525252"/>
<path id="Vector_70" d="M35.7963 67.7318C33.3203 59.8294 34.3265 52.7316 38.5549 48.2712C41.8901 44.7579 47.0117 43.1795 53.0038 43.821L52.9585 44.208C47.1247 43.5868 42.1276 45.1143 38.8941 48.5258C34.7562 52.8843 33.7839 59.8498 36.2146 67.63L35.7963 67.7318Z" fill="#525252"/>
<path id="Vector_71" d="M24.5696 55.8986C17.6052 55.8986 9.82684 54.8497 1.68665 52.7112L1.81101 52.3344C20.8726 57.3243 37.8427 56.3874 47.2039 49.8191L47.4639 50.1246C42.0145 53.9434 34.0326 55.8884 24.5696 55.8884V55.8986Z" fill="#525252"/>
</g>
<g id="Group_30">
<path id="Vector_72" d="M108.538 94.4431L108.018 94.3922C99.5385 93.4757 90.8217 90.1355 82.7042 85.0947C81.0874 85.6853 79.5046 86.5102 77.967 87.5896L77.8992 87.6405H77.8087C65.3271 86.2861 51.8506 74.5955 47.7692 61.5708L47.7239 61.4486L47.837 61.3672C50.7878 59.2897 52.8794 57.1614 54.0213 55.0636C51.8845 51.1837 50.1321 47.1612 48.8432 43.0675L48.6962 42.5786L49.1711 42.8536C53.1507 45.1245 55.3328 47.9148 55.5023 50.9291C55.5702 52.2835 55.231 53.6685 54.5074 55.0636C61.0874 66.9477 71.3079 77.508 82.7494 84.667C91.0818 81.7443 100.273 85.0336 108.21 94.0867L108.538 94.4533V94.4431ZM83.1903 84.9216C91.0026 89.7383 99.3802 92.9665 107.554 93.9441C99.9116 85.4307 91.1609 82.2738 83.1903 84.9216ZM48.2327 61.581C52.3141 74.3918 65.5306 85.8584 77.7861 87.223C79.2446 86.2047 80.7595 85.4002 82.2971 84.8197C70.9687 77.6811 60.8613 67.2227 54.2813 55.4709C53.0942 57.5178 51.0592 59.5749 48.2327 61.5708V61.581ZM49.4424 43.4442C50.6748 47.2427 52.3028 50.98 54.2813 54.5951C54.8805 53.3528 55.1632 52.1206 55.0953 50.9189C54.9484 48.1694 53.0038 45.5828 49.4424 43.4341V43.4442Z" fill="#525252"/>
<path id="Vector_73" d="M83.4277 85.4816C82.625 82.1516 80.9292 79.9724 78.5097 79.1781C75.2762 78.119 70.8217 79.4938 65.6098 83.1394L65.3497 82.8339C70.6748 79.0966 75.2876 77.7117 78.6567 78.8115C81.2118 79.6465 83.0094 81.9276 83.8461 85.39L83.4277 85.4715V85.4816Z" fill="#525252"/>
<path id="Vector_74" d="M54.9031 73.8521L54.6431 73.5466C61.4492 68.7705 63.5182 67.0801 64.14 66.4793C63.8573 66.5913 63.3938 66.8153 62.6024 67.243L62.3876 66.907C64.3887 65.8275 64.6261 65.8683 64.7844 66.0719C64.9653 66.3061 65.214 66.632 54.9257 73.8521H54.9031Z" fill="#525252"/>
</g>
<g id="Group_31">
<path id="Vector_75" d="M47.8596 61.8356L47.7692 61.5606C45.5645 54.5137 46.4577 48.1897 50.2338 44.208C50.2791 44.1571 50.3356 44.1062 50.3808 44.0552C49.9399 43.7497 49.4537 43.4544 48.9563 43.1591L48.8884 43.1184L48.8658 43.0471C44.5244 29.1874 46.2768 16.7635 53.6934 8.9528C59.5159 2.81216 68.4927 0.0524365 78.9506 1.1828L79.1428 1.20317V1.37629C78.6341 19.289 72.6759 33.9532 63.2242 40.5827L63.1564 40.6336H63.0659C58.1366 40.0939 53.8856 41.2955 51.0026 44.0145C53.8178 46.0512 55.3667 48.4036 55.5023 50.9189C55.6945 54.422 53.1281 58.139 48.097 61.6727L47.8483 61.8458L47.8596 61.8356ZM50.72 44.2895C50.6635 44.3404 50.6182 44.4015 50.5617 44.4524C46.9325 48.2814 46.0394 54.3609 48.097 61.1737C52.8455 57.7826 55.2536 54.2387 55.084 50.9291C54.9597 48.5258 53.456 46.2651 50.72 44.2997V44.2895ZM49.2502 42.874C49.7477 43.1591 50.2225 43.4646 50.6748 43.7701C53.6369 40.9595 57.9896 39.7069 63.032 40.2263C72.3254 33.6579 78.1705 19.2177 78.7132 1.53922C68.4814 0.480143 59.7081 3.19913 54.01 9.20738C46.7064 16.9061 44.9766 29.1772 49.2502 42.874Z" fill="#525252"/>
<path id="Vector_76" d="M47.4639 50.1348L47.2039 49.8293C56.5085 43.3017 56.6668 32.2729 47.6222 20.3379L47.9727 20.1241C57.1643 32.2424 56.9834 43.4646 47.4639 50.1348Z" fill="#525252"/>
</g>
</g>
<path id="Vector_77" d="M62.218 126.704L61.9806 126.684C37.413 124.036 10.867 101.011 2.81721 75.3491C-2.22518 59.2897 0.92914 45.3893 11.2401 38.1488L11.3644 38.0674L11.4888 38.1386C27.5657 47.4973 42.7268 49.1673 52.0654 42.6194L52.3254 42.9249C47.2152 46.5095 45.655 53.4342 48.1762 61.4486C52.2237 74.3409 65.5306 85.8991 77.854 87.2332L78.374 87.2841L77.967 87.5692C68.6058 94.1376 62.7155 108.68 62.218 126.48V126.694V126.704ZM11.387 38.546C1.31354 45.6948 -1.73903 59.4017 3.23553 75.2472C11.2174 100.686 37.4469 123.527 61.7997 126.277C62.3424 108.71 68.1197 94.3005 77.3113 87.5692C64.9766 85.9704 51.8053 74.4224 47.7692 61.5708C45.5419 54.4627 46.469 48.1897 50.1999 44.2487C40.6578 49.2997 26.4125 47.263 11.387 38.5562V38.546Z" fill="#525252"/>
</g>
<g id="Group_32">
<g id="Group_33">
<g id="Group_34">
<path id="Vector_78" d="M66.469 126.928C65.0105 126.928 63.5068 126.847 61.9806 126.684L61.7884 126.664V126.49C62.2971 108.578 68.2553 93.9135 77.707 87.2841L77.7748 87.2332H77.8652C82.7946 87.7729 87.0456 86.5713 89.9285 83.8523C87.1134 81.8156 85.5645 79.4632 85.4288 76.9479C85.2366 73.4448 87.803 69.7278 92.8341 66.1941L93.0829 66.021L93.1733 66.296C95.3893 73.3429 94.4848 79.6669 90.7086 83.6486C90.6634 83.6995 90.6069 83.7504 90.5617 83.8013C91.0026 84.1069 91.4887 84.4022 91.9862 84.6975L92.054 84.7382L92.0767 84.8095C96.4181 98.6692 94.6657 111.093 87.2491 118.904C82.2745 124.148 75.0049 126.928 66.469 126.928ZM62.2293 126.317C72.4611 127.366 81.2344 124.657 86.9325 118.649C94.2361 110.951 95.9659 98.6794 91.6923 84.9826C91.1948 84.6975 90.72 84.392 90.2677 84.0865C87.3056 86.8971 82.9529 88.1497 77.9105 87.6303C68.6171 94.1987 62.772 108.639 62.2293 126.317ZM92.8454 66.6829C88.097 70.074 85.6889 73.6179 85.8584 76.9275C85.9828 79.3308 87.4865 81.5915 90.2225 83.5569C90.279 83.506 90.3356 83.4449 90.3808 83.394C94.0099 79.565 94.9031 73.4855 92.8454 66.6727V66.6829Z" fill="#525252"/>
<path id="Vector_79" d="M67.4752 110.635C66.3898 110.635 65.2819 110.574 64.14 110.452L64.1852 110.065C71.8053 110.879 78.3288 108.873 82.5685 104.423C87.9727 98.7303 89.2502 89.6467 86.062 79.4937L86.4803 79.3919C89.7024 89.667 88.4023 98.8831 82.8963 104.677C79.1993 108.578 73.8065 110.635 67.4752 110.635Z" fill="#525252"/>
<path id="Vector_80" d="M72.0654 97.1111C71.2287 97.1111 70.3695 97.0602 69.4989 96.9686L69.5442 96.5816C75.378 97.213 80.3751 95.6753 83.6086 92.2638C87.7465 87.9053 88.7188 80.9398 86.2881 73.1596L86.7064 73.0578C89.1824 80.9602 88.1761 88.058 83.9478 92.5184C81.0987 95.5225 76.9382 97.1111 72.0654 97.1111Z" fill="#525252"/>
<path id="Vector_81" d="M82.2293 122.621C76.3842 105.9 78.5662 91.938 88.0518 85.2881L88.3118 85.5937C78.9732 92.1416 76.859 105.94 82.6363 122.509L82.2293 122.621Z" fill="#525252"/>
</g>
<g id="Group_35">
<path id="Vector_82" d="M112.506 94.6366C111.048 94.6366 109.544 94.5551 108.018 94.3922H107.927L107.871 94.3209C102.365 88.0479 96.2598 84.5753 90.2677 84.0763C87.2943 86.9175 82.8963 88.1701 77.7974 87.6303L77.2773 87.5794L77.6844 87.2943C81.5849 84.5549 85.8132 83.3737 90.0981 83.6792C90.1886 83.5977 90.2677 83.506 90.3582 83.4144C94.0439 79.5345 94.9031 73.3429 92.7324 66.4182L92.6872 66.296L92.8002 66.2145C102.241 59.5952 119.086 54.422 137.854 52.3853L138.035 52.365L138.08 52.5279C142.421 66.3876 140.669 78.8115 133.252 86.6222C128.278 91.8667 121.008 94.6468 112.472 94.6468L112.506 94.6366ZM108.154 94.0154C118.431 95.105 127.238 92.386 132.959 86.3574C140.251 78.6791 141.992 66.4487 137.741 52.7825C119.188 54.8192 102.568 59.9109 93.1959 66.4283C95.3553 73.4244 94.4509 79.6974 90.6973 83.6588C90.6747 83.6792 90.6634 83.6995 90.6408 83.7097C96.6103 84.3105 102.67 87.7933 108.154 94.0154ZM78.3966 87.2943C82.9868 87.6711 86.9551 86.5305 89.7137 84.0356C85.8132 83.8217 81.9693 84.9012 78.3966 87.2943Z" fill="#525252"/>
<path id="Vector_83" d="M128.357 90.4308C112.619 80.8583 97.6504 79.0457 88.3118 85.5936L88.0518 85.2881C97.5374 78.6281 112.698 80.4306 128.594 90.1049L128.357 90.4206V90.4308Z" fill="#525252"/>
</g>
</g>
<path id="Vector_84" d="M66.5142 126.928C65.0444 126.928 63.5295 126.847 61.9806 126.684L61.7884 126.664V126.491C62.2971 108.578 68.2553 93.9136 77.707 87.2841L77.7748 87.2332H77.8652C82.0936 87.6915 85.8019 86.8971 88.6058 84.9317L88.8658 85.2372C79.5272 91.7852 77.6052 105.451 83.7217 121.796L83.7669 121.928L83.6425 122.01C79.0071 125.268 73.1394 126.939 66.5029 126.939L66.5142 126.928ZM62.2293 126.317C70.4825 127.163 77.7522 125.605 83.2694 121.776C77.5939 106.5 78.8941 93.5368 86.6951 86.4491C84.1852 87.5591 81.1891 87.9664 77.9105 87.6202C68.6171 94.1885 62.772 108.629 62.2293 126.307V126.317Z" fill="#525252"/>
</g>
<g id="Group_36">
<g id="Group_37">
<g id="Group_38">
<path id="Vector_85" d="M62.218 126.704L61.9806 126.684C37.413 124.036 10.8669 101.011 2.81719 75.3491L2.74936 75.1352L2.99809 75.1046C21.6979 73.0781 38.4645 67.9355 47.837 61.357L48.0857 61.1838L48.1762 61.4588C52.2236 74.3511 65.5306 85.9093 77.8539 87.2434L78.374 87.2943L77.967 87.5794C68.6058 94.1478 62.7154 108.69 62.218 126.49V126.704ZM3.30334 75.4611C11.3644 100.818 37.5148 123.527 61.7997 126.277C62.3424 108.71 68.1196 94.3005 77.3113 87.5692C65.0671 85.9806 51.9862 74.5853 47.8596 61.8458C38.4192 68.353 21.811 73.4346 3.30334 75.4713V75.4611Z" fill="#525252"/>
<path id="Vector_86" d="M37.7861 117.824L37.4017 117.661C45.4628 102.478 55.9093 89.4735 65.3497 82.8543L65.6097 83.1598C56.2259 89.7383 45.8245 102.702 37.7861 117.835V117.824Z" fill="#525252"/>
</g>
<g id="Group_39">
<path id="Vector_87" d="M2.87372 75.512L2.8285 75.3491C-1.52424 61.4894 0.22816 49.0655 7.64478 41.2548C13.4786 35.1141 22.4554 32.3442 32.9133 33.4746H33.0037L33.0603 33.5459C38.5662 39.8291 44.6713 43.2915 50.6634 43.7905C53.6369 40.9493 58.0348 39.6865 63.1338 40.2364L63.6538 40.2874L63.2468 40.5725C59.3463 43.3118 55.1292 44.4931 50.833 44.1876C50.7426 44.2691 50.6634 44.3607 50.573 44.4524C46.8873 48.3323 46.028 54.5239 48.1988 61.4486L48.244 61.5708L48.1309 61.6523C38.6906 68.2716 21.8449 73.4448 3.07723 75.4815L2.89633 75.5018L2.87372 75.512ZM28.4362 33.6172C20.0247 33.6172 12.8681 36.3565 7.98395 41.5094C0.680393 49.1877 -1.0607 61.4181 3.17898 75.0843C21.7318 73.0476 38.3514 67.9559 47.7239 61.4384C45.5645 54.4424 46.469 48.1694 50.2225 44.208C50.2451 44.1876 50.2564 44.1673 50.279 44.1469C44.3096 43.5461 38.2496 40.0633 32.7663 33.8412C31.2853 33.6885 29.8381 33.607 28.4249 33.607L28.4362 33.6172ZM51.2174 43.8312C55.1066 44.0349 58.9619 42.9656 62.5345 40.5725C57.9444 40.1855 53.976 41.3362 51.2174 43.8312Z" fill="#525252"/>
<path id="Vector_88" d="M24.5696 55.8986C17.6052 55.8986 9.82681 54.8497 1.68661 52.7112L1.81098 52.3344C20.8726 57.3243 37.8426 56.3874 47.2039 49.8191L47.4639 50.1246C42.0145 53.9434 34.0326 55.8884 24.5696 55.8884V55.8986Z" fill="#525252"/>
</g>
<g id="Group_40">
<path id="Vector_89" d="M108.538 94.4431L108.018 94.3922C99.5385 93.4757 90.8217 90.1355 82.7041 85.0947C81.0874 85.6853 79.5046 86.5102 77.967 87.5896L77.8991 87.6405H77.8087C65.3271 86.2861 51.8505 74.5955 47.7691 61.5708L47.7239 61.4486L47.837 61.3672C50.7878 59.2897 52.8794 57.1614 54.0213 55.0636C51.8844 51.1837 50.132 47.1612 48.8432 43.0675L48.6962 42.5786L49.1711 42.8536C53.1507 45.1245 55.3327 47.9148 55.5023 50.9291C55.5701 52.2835 55.231 53.6685 54.5074 55.0636C61.0874 66.9477 71.3079 77.508 82.7493 84.667C91.0817 81.7443 100.273 85.0336 108.21 94.0867L108.538 94.4533V94.4431ZM83.1903 84.9216C91.0026 89.7383 99.3802 92.9665 107.554 93.9441C99.9116 85.4307 91.1609 82.2738 83.1903 84.9216ZM48.2327 61.581C52.3141 74.3918 65.5306 85.8584 77.7861 87.223C79.2445 86.2047 80.7595 85.4002 82.2971 84.8197C70.9687 77.6811 60.8613 67.2227 54.2813 55.4709C53.0942 57.5178 51.0591 59.5749 48.2327 61.5708V61.581ZM49.4424 43.4442C50.6747 47.2427 52.3028 50.98 54.2813 54.5951C54.8805 53.3528 55.1631 52.1206 55.0953 50.9189C54.9483 48.1694 53.0037 45.5828 49.4424 43.4341V43.4442Z" fill="#525252"/>
<path id="Vector_90" d="M87.9274 84.0356C73.9308 82.5284 58.8036 69.4121 54.2248 54.7988L54.6431 54.697C59.188 69.1779 74.1456 82.172 87.984 83.6588L87.9387 84.0458L87.9274 84.0356Z" fill="#525252"/>
<path id="Vector_91" d="M98.2948 86.5C80.0812 84.5448 60.4203 67.4772 54.4509 48.4647L54.8692 48.3629C60.7934 67.243 80.296 84.1782 98.3514 86.1232L98.3062 86.5102L98.2948 86.5Z" fill="#525252"/>
<path id="Vector_92" d="M83.4277 85.4816C82.625 82.1516 80.9291 79.9724 78.5097 79.1781C75.2762 78.119 70.8217 79.4938 65.6097 83.1394L65.3497 82.8339C70.6747 79.0966 75.2875 77.7117 78.6567 78.8115C81.2118 79.6465 83.0094 81.9276 83.846 85.39L83.4277 85.4715V85.4816Z" fill="#525252"/>
</g>
<g id="Group_41">
<path id="Vector_93" d="M47.8596 61.8356L47.7691 61.5606C45.5645 54.5137 46.4577 48.1897 50.2338 44.208C50.279 44.1571 50.3356 44.1062 50.3808 44.0552C49.9399 43.7497 49.4537 43.4544 48.9562 43.1591L48.8884 43.1184L48.8658 43.0471C44.5244 29.1874 46.2768 16.7635 53.6934 8.9528C59.5159 2.81216 68.4927 0.0524365 78.9506 1.1828L79.1428 1.20317V1.37629C78.634 19.289 72.6759 33.9532 63.2242 40.5827L63.1564 40.6336H63.0659C58.1366 40.0939 53.8856 41.2955 51.0026 44.0145C53.8177 46.0512 55.3666 48.4036 55.5023 50.9189C55.6945 54.422 53.1281 58.139 48.097 61.6727L47.8483 61.8458L47.8596 61.8356ZM50.72 44.2895C50.6634 44.3404 50.6182 44.4015 50.5617 44.4524C46.9325 48.2814 46.0393 54.3609 48.097 61.1737C52.8454 57.7826 55.2536 54.2387 55.084 50.9291C54.9596 48.5258 53.456 46.2651 50.72 44.2997V44.2895ZM49.2502 42.874C49.7477 43.1591 50.2225 43.4646 50.6747 43.7701C53.6369 40.9595 57.9896 39.7069 63.032 40.2263C72.3254 33.6579 78.1705 19.2177 78.7132 1.53922C68.4814 0.480143 59.7081 3.19913 54.0099 9.20738C46.7064 16.9061 44.9766 29.1772 49.2502 42.874Z" fill="#525252"/>
<path id="Vector_94" d="M54.2248 54.7988C51.7488 46.8964 52.755 39.7985 56.9834 35.3382C60.3186 31.8249 65.4514 30.2464 71.4322 30.888L71.387 31.275C65.5645 30.6436 60.556 32.1813 57.3113 35.5928C53.1733 39.9513 52.201 46.9168 54.6431 54.697L54.2248 54.7988Z" fill="#525252"/>
<path id="Vector_95" d="M54.4509 48.4647C51.2287 38.1895 52.5289 28.9735 58.0348 23.1791C62.365 18.6169 69.0241 16.5598 76.7912 17.4051L76.746 17.792C69.1258 16.9672 62.6024 18.9733 58.3627 23.4337C52.9585 29.1263 51.6809 38.2201 54.8692 48.3628L54.4509 48.4647Z" fill="#525252"/>
<path id="Vector_96" d="M47.4639 50.1348L47.2039 49.8293C56.5085 43.3017 56.6668 32.2729 47.6222 20.3379L47.9727 20.1241C57.1643 32.2424 56.9834 43.4646 47.4639 50.1348Z" fill="#525252"/>
</g>
</g>
<path id="Vector_97" d="M77.8991 87.6303H77.8087C65.3271 86.2759 51.8505 74.5853 47.7691 61.5606C45.2027 53.3935 46.8194 46.316 52.0767 42.6296C52.4158 42.375 53.3429 41.7029 53.8064 40.7456L54.2135 40.878C53.9308 41.7945 54.0439 43.2813 54.1004 44.0858C54.1682 44.9514 54.2021 45.1449 54.6996 47.4158C54.8353 48.0675 55.0953 48.9331 55.3214 49.5951C55.8076 50.9393 56.5198 52.7417 57.0851 54.0656C57.4356 54.8701 57.967 55.9394 58.4192 56.7235C58.5549 56.9679 58.7132 57.2327 58.8715 57.5076C59.2219 58.1186 59.5724 58.75 59.889 59.2694C60.2168 59.8091 60.6465 60.4506 61.0648 61.0718C61.2457 61.3468 61.4266 61.6217 61.5849 61.8661C61.5962 61.8865 63.0659 64.0963 65.4741 66.9172C66.4011 68.0068 67.1134 68.8011 67.6561 69.351C69.0015 70.7054 70.8443 72.4773 72.2349 73.7401C73.8064 75.1658 76.9269 77.4367 77.2434 77.6505C78.4871 78.4856 80.2168 79.5548 81.5283 80.3288C82.1841 80.7158 83.0998 81.1842 83.8121 81.5101C85.5645 82.3044 86.1524 82.5692 87.4978 83.007C88.0631 83.1903 88.7867 83.394 89.2954 83.5162C89.725 83.618 90.3242 83.7097 90.7539 83.7708L90.6973 84.1578C86.2202 83.6792 81.9353 84.8401 77.9783 87.61L77.9105 87.6609L77.8991 87.6303ZM53.6142 41.7741C53.1394 42.3444 52.5854 42.7518 52.3367 42.9351C47.2152 46.5196 45.6663 53.4546 48.1761 61.4588C52.2123 74.3205 65.474 85.8584 77.7748 87.2332C81.0874 84.9317 84.6148 83.7301 88.3118 83.6486C87.9839 83.557 87.6448 83.4551 87.3395 83.3533C85.9715 82.9052 85.3723 82.6404 83.6086 81.8359C82.885 81.5101 81.9466 81.0314 81.2796 80.6343C79.9568 79.8603 78.227 78.7707 76.9721 77.9357C76.6555 77.7218 73.4899 75.4305 71.9071 73.9947C70.5051 72.7217 68.6623 70.9498 67.3056 69.5852C66.7516 69.0251 66.028 68.2206 65.101 67.131C62.6928 64.3102 61.2005 62.0596 61.1891 62.0393C61.0309 61.7949 60.85 61.5301 60.6691 61.2551C60.2508 60.6339 59.8324 59.9822 59.4933 59.4323C59.1767 58.9129 58.8149 58.2816 58.4644 57.6604C58.3062 57.3854 58.1592 57.1105 58.0122 56.8762C57.56 56.0921 57.0173 55.0025 56.6668 54.1878C56.0902 52.8639 55.378 51.0513 54.8918 49.6969C54.6544 49.035 54.3943 48.1388 54.2587 47.4871C53.7612 45.1856 53.716 44.9921 53.6482 44.1062C53.6029 43.5257 53.5351 42.6092 53.6029 41.7741H53.6142Z" fill="#525252"/>
</g>
<g id="Group_42">
<g id="Group_43">
<g id="Group_44">
<path id="Vector_98" d="M62.218 126.704L61.9806 126.684C37.413 124.036 10.8669 101.011 2.81719 75.3491L2.74936 75.1352L2.99809 75.1046C21.6979 73.0781 38.4645 67.9355 47.837 61.357L48.0857 61.1838L48.1762 61.4588C52.2236 74.3511 65.5306 85.9093 77.8539 87.2434L78.374 87.2943L77.967 87.5794C68.6058 94.1478 62.7154 108.69 62.218 126.49V126.704ZM3.30334 75.4611C11.3644 100.818 37.5148 123.527 61.7997 126.277C62.3424 108.71 68.1196 94.3005 77.3113 87.5692C65.0671 85.9806 51.9862 74.5853 47.8596 61.8458C38.4192 68.353 21.811 73.4346 3.30334 75.4713V75.4611Z" fill="#525252"/>
<path id="Vector_99" d="M37.7861 117.824L37.4017 117.661C45.4628 102.478 55.9093 89.4735 65.3497 82.8543L65.6097 83.1598C56.2259 89.7383 45.8245 102.702 37.7861 117.835V117.824Z" fill="#525252"/>
<path id="Vector_100" d="M16.5651 99.5348L16.3163 99.2191C30.8896 89.7587 45.214 80.1556 54.6431 73.5466L54.9031 73.8521C45.4741 80.4612 31.1496 90.0642 16.5651 99.5348Z" fill="#525252"/>
</g>
<g id="Group_45">
<path id="Vector_101" d="M2.87372 75.512L2.8285 75.3491C-1.52424 61.4894 0.22816 49.0655 7.64478 41.2548C13.4786 35.1141 22.4554 32.3442 32.9133 33.4746H33.0037L33.0603 33.5459C38.5662 39.8291 44.6713 43.2915 50.6634 43.7905C53.6369 40.9493 58.0348 39.6865 63.1338 40.2364L63.6538 40.2874L63.2468 40.5725C59.3463 43.3118 55.1292 44.4931 50.833 44.1876C50.7426 44.2691 50.6634 44.3607 50.573 44.4524C46.8873 48.3323 46.028 54.5239 48.1988 61.4486L48.244 61.5708L48.1309 61.6523C38.6906 68.2716 21.8449 73.4448 3.07723 75.4815L2.89633 75.5018L2.87372 75.512ZM28.4362 33.6172C20.0247 33.6172 12.8681 36.3565 7.98395 41.5094C0.680393 49.1877 -1.0607 61.4181 3.17898 75.0843C21.7318 73.0476 38.3514 67.9559 47.7239 61.4384C45.5645 54.4424 46.469 48.1694 50.2225 44.208C50.2451 44.1876 50.2564 44.1673 50.279 44.1469C44.3096 43.5461 38.2496 40.0633 32.7663 33.8412C31.2853 33.6885 29.8381 33.607 28.4249 33.607L28.4362 33.6172ZM51.2174 43.8312C55.1066 44.0349 58.9619 42.9656 62.5345 40.5725C57.9444 40.1855 53.976 41.3362 51.2174 43.8312Z" fill="#525252"/>
<path id="Vector_102" d="M24.5696 55.8986C17.6052 55.8986 9.82681 54.8497 1.68661 52.7112L1.81098 52.3344C20.8726 57.3243 37.8426 56.3874 47.2039 49.8191L47.4639 50.1246C42.0145 53.9434 34.0326 55.8884 24.5696 55.8884V55.8986Z" fill="#525252"/>
</g>
<g id="Group_46">
<path id="Vector_103" d="M108.538 94.4431L108.018 94.3922C99.5385 93.4757 90.8217 90.1355 82.7041 85.0947C81.0874 85.6853 79.5046 86.5102 77.967 87.5896L77.8991 87.6405H77.8087C65.3271 86.2861 51.8505 74.5955 47.7691 61.5708L47.7239 61.4486L47.837 61.3672C50.7878 59.2897 52.8794 57.1614 54.0213 55.0636C51.8844 51.1837 50.132 47.1612 48.8432 43.0675L48.6962 42.5786L49.1711 42.8536C53.1507 45.1245 55.3327 47.9148 55.5023 50.9291C55.5701 52.2835 55.231 53.6685 54.5074 55.0636C61.0874 66.9477 71.3079 77.508 82.7493 84.667C91.0817 81.7443 100.273 85.0336 108.21 94.0867L108.538 94.4533V94.4431ZM83.1903 84.9216C91.0026 89.7383 99.3802 92.9665 107.554 93.9441C99.9116 85.4307 91.1609 82.2738 83.1903 84.9216ZM48.2327 61.581C52.3141 74.3918 65.5306 85.8584 77.7861 87.223C79.2445 86.2047 80.7595 85.4002 82.2971 84.8197C70.9687 77.6811 60.8613 67.2227 54.2813 55.4709C53.0942 57.5178 51.0591 59.5749 48.2327 61.5708V61.581ZM49.4424 43.4442C50.6747 47.2427 52.3028 50.98 54.2813 54.5951C54.8805 53.3528 55.1631 52.1206 55.0953 50.9189C54.9483 48.1694 53.0037 45.5828 49.4424 43.4341V43.4442Z" fill="#525252"/>
<path id="Vector_104" d="M87.9274 84.0356C73.9308 82.5284 58.8036 69.4121 54.2248 54.7988L54.6431 54.697C59.188 69.1779 74.1456 82.172 87.984 83.6588L87.9387 84.0458L87.9274 84.0356Z" fill="#525252"/>
<path id="Vector_105" d="M98.2948 86.5C80.0812 84.5448 60.4203 67.4772 54.4509 48.4647L54.8692 48.3629C60.7934 67.243 80.296 84.1782 98.3514 86.1232L98.3062 86.5102L98.2948 86.5Z" fill="#525252"/>
<path id="Vector_106" d="M83.4277 85.4816C82.625 82.1516 80.9291 79.9724 78.5097 79.1781C75.2762 78.119 70.8217 79.4938 65.6097 83.1394L65.3497 82.8339C70.6747 79.0966 75.2875 77.7117 78.6567 78.8115C81.2118 79.6465 83.0094 81.9276 83.846 85.39L83.4277 85.4715V85.4816Z" fill="#525252"/>
</g>
<g id="Group_47">
<path id="Vector_107" d="M47.8596 61.8356L47.7691 61.5606C45.5645 54.5137 46.4577 48.1897 50.2338 44.208C50.279 44.1571 50.3356 44.1062 50.3808 44.0552C49.9399 43.7497 49.4537 43.4544 48.9562 43.1591L48.8884 43.1184L48.8658 43.0471C44.5244 29.1874 46.2768 16.7635 53.6934 8.9528C59.5159 2.81216 68.4927 0.0524365 78.9506 1.1828L79.1428 1.20317V1.37629C78.634 19.289 72.6759 33.9532 63.2242 40.5827L63.1564 40.6336H63.0659C58.1366 40.0939 53.8856 41.2955 51.0026 44.0145C53.8177 46.0512 55.3666 48.4036 55.5023 50.9189C55.6945 54.422 53.1281 58.139 48.097 61.6727L47.8483 61.8458L47.8596 61.8356ZM50.72 44.2895C50.6634 44.3404 50.6182 44.4015 50.5617 44.4524C46.9325 48.2814 46.0393 54.3609 48.097 61.1737C52.8454 57.7826 55.2536 54.2387 55.084 50.9291C54.9596 48.5258 53.456 46.2651 50.72 44.2997V44.2895ZM49.2502 42.874C49.7477 43.1591 50.2225 43.4646 50.6747 43.7701C53.6369 40.9595 57.9896 39.7069 63.032 40.2263C72.3254 33.6579 78.1705 19.2177 78.7132 1.53922C68.4814 0.480143 59.7081 3.19913 54.0099 9.20738C46.7064 16.9061 44.9766 29.1772 49.2502 42.874Z" fill="#525252"/>
<path id="Vector_108" d="M54.2248 54.7988C51.7488 46.8964 52.755 39.7985 56.9834 35.3382C60.3186 31.8249 65.4514 30.2464 71.4322 30.888L71.387 31.275C65.5645 30.6436 60.556 32.1813 57.3113 35.5928C53.1733 39.9513 52.201 46.9168 54.6431 54.697L54.2248 54.7988Z" fill="#525252"/>
<path id="Vector_109" d="M54.4509 48.4647C51.2287 38.1895 52.5289 28.9735 58.0348 23.1791C62.365 18.6169 69.0241 16.5598 76.7912 17.4051L76.746 17.792C69.1258 16.9672 62.6024 18.9733 58.3627 23.4337C52.9585 29.1263 51.6809 38.2201 54.8692 48.3628L54.4509 48.4647Z" fill="#525252"/>
<path id="Vector_110" d="M47.4639 50.1348L47.2039 49.8293C56.5085 43.3017 56.6668 32.2729 47.6222 20.3379L47.9727 20.1241C57.1643 32.2424 56.9834 43.4646 47.4639 50.1348Z" fill="#525252"/>
</g>
</g>
<path id="Vector_111" d="M108.538 94.4431L108.018 94.3922C83.4503 91.7445 56.9043 68.7196 48.8545 43.0572C43.8121 26.9979 46.9664 13.0873 57.2773 5.857L57.5148 5.69406L57.6052 5.94865C63.3825 21.397 62.0258 34.4929 54.0552 41.5603C53.8743 43.1794 54.1682 46.1021 55.1858 49.2182C55.638 50.6134 56.3616 52.426 56.8929 53.6582C57.1756 54.31 57.5826 55.1145 57.9444 55.8273C58.0688 56.0717 58.1931 56.3059 58.3062 56.53C59.0976 58.0982 59.9003 59.3304 61.517 61.7948C61.5283 61.8152 63.0207 64.0658 65.4288 66.8866C66.3446 67.9558 67.3734 69.1677 69.8381 71.5608C71.5114 73.18 73.716 75.0232 74.4848 75.6036C76.8816 77.4163 78.0801 78.3226 81.2231 80.1455C81.9127 80.5528 82.7494 80.9907 83.326 81.2555C84.66 81.8733 85.8547 82.3824 86.9099 82.783C87.5882 83.0376 89.0015 83.506 90.72 83.7301C96.7912 84.3818 102.828 87.9562 108.187 94.0561L108.515 94.4227L108.538 94.4431ZM57.3113 6.33562C47.3282 13.515 44.3209 27.1812 49.2728 42.9554C57.2208 68.2919 83.2807 91.052 107.543 93.9543C102.342 88.1599 96.5199 84.7688 90.6861 84.1374C88.911 83.9032 87.4639 83.4246 86.7629 83.1598C85.6926 82.7592 84.4867 82.2467 83.1451 81.6221C82.4215 81.286 81.5396 80.7972 80.997 80.4917C77.8426 78.6587 76.6329 77.7422 74.2248 75.9193C73.456 75.3389 71.2287 73.4753 69.5442 71.8459C67.0682 69.4426 66.0281 68.2206 65.1123 67.1412C62.6702 64.2796 61.1778 62.0291 61.1665 62.0087C59.5385 59.5341 58.7245 58.2917 57.9331 56.7031C57.82 56.4893 57.707 56.2449 57.5713 56.0004C57.1982 55.2876 56.7912 54.4729 56.5085 53.811C55.9772 52.5686 55.2536 50.7356 54.7901 49.3405C53.8404 46.4483 53.5125 43.6886 53.603 41.9676C53.1959 42.3037 52.7663 42.6295 52.3254 42.9452L52.0541 42.6397C52.4837 42.3139 52.755 42.1102 53.0942 41.7436C53.5351 41.2548 53.716 40.9187 53.7838 40.7558L54.1909 40.878C54.1909 40.878 54.1909 40.8983 54.1909 40.9085C61.6188 33.9023 62.8172 21.2442 57.3113 6.33562Z" fill="#525252"/>
</g>
<g id="Group_48">
<g id="Group_49">
<g id="Group_50">
<path id="Vector_112" d="M2.87372 75.512L2.8285 75.3491C-1.52424 61.4894 0.22816 49.0655 7.64478 41.2548C13.4786 35.1141 22.4554 32.3442 32.9133 33.4746H33.0037L33.0603 33.5459C38.5662 39.8291 44.6713 43.2915 50.6634 43.7905C53.6369 40.9493 58.0348 39.6865 63.1338 40.2364L63.6538 40.2874L63.2468 40.5725C59.3463 43.3118 55.1292 44.4931 50.833 44.1876C50.7426 44.2691 50.6634 44.3607 50.573 44.4524C46.8873 48.3323 46.028 54.5239 48.1988 61.4486L48.244 61.5708L48.1309 61.6523C38.6906 68.2716 21.8449 73.4448 3.07723 75.4815L2.89633 75.5018L2.87372 75.512ZM28.4362 33.6172C20.0247 33.6172 12.8681 36.3565 7.98395 41.5094C0.680393 49.1877 -1.0607 61.4181 3.17898 75.0843C21.7318 73.0476 38.3514 67.9559 47.7239 61.4384C45.5645 54.4424 46.469 48.1694 50.2225 44.208C50.2451 44.1876 50.2564 44.1673 50.279 44.1469C44.3096 43.5461 38.2496 40.0633 32.7663 33.8412C31.2853 33.6885 29.8381 33.607 28.4249 33.607L28.4362 33.6172ZM51.2174 43.8312C55.1066 44.0349 58.9619 42.9656 62.5345 40.5725C57.9444 40.1855 53.976 41.3362 51.2174 43.8312Z" fill="#525252"/>
<path id="Vector_113" d="M39.1315 46.5298C31.1835 46.5298 21.8901 43.5562 12.3367 37.7415L12.5741 37.4258C28.3118 46.9983 43.2807 48.8109 52.6193 42.2629L52.8794 42.5684C49.0919 45.2263 44.4113 46.5298 39.1315 46.5298Z" fill="#525252"/>
</g>
<g id="Group_51">
<path id="Vector_114" d="M92.2236 85.2881L91.7488 85.0132C87.7691 82.7423 85.5871 79.952 85.4175 76.9377C85.3497 75.5833 85.6889 74.1983 86.4124 72.8032C79.8325 60.9191 69.612 50.3588 58.1705 43.1998C49.8381 46.1327 40.6465 42.8332 32.7098 33.7801L32.3819 33.4135L32.902 33.4644C41.3814 34.3809 50.0982 37.7211 58.2157 42.7619C59.8325 42.1713 61.4153 41.3464 62.9529 40.267L63.0207 40.2161H63.1112C75.5928 41.5705 89.0693 53.2611 93.1507 66.2858L93.1959 66.408L93.0829 66.4894C90.1321 68.5669 88.0405 70.6952 86.8873 72.793C89.0241 76.6729 90.7765 80.6954 92.0654 84.7892L92.2123 85.278L92.2236 85.2881ZM86.6725 73.2513C86.0733 74.4937 85.7906 75.7259 85.8585 76.9275C86.0054 79.6771 87.95 82.2637 91.5114 84.4124C90.279 80.6139 88.651 76.8766 86.6838 73.2615L86.6725 73.2513ZM58.6567 43.0267C69.9851 50.1755 80.0925 60.6238 86.6725 72.3755C87.8596 70.3286 89.8946 68.2716 92.7211 66.2756C88.6397 53.4648 75.4232 41.9982 63.1677 40.6336C61.7092 41.6519 60.1943 42.4564 58.6567 43.0369V43.0267ZM33.3881 33.9023C41.0309 42.4259 49.7929 45.5726 57.7522 42.9249C49.9399 38.1081 41.5623 34.8799 33.3881 33.9023Z" fill="#525252"/>
<path id="Vector_115" d="M64.7166 49.4016C63.846 49.4016 63.032 49.2794 62.2858 49.035C59.7307 48.1999 57.9331 45.9188 57.0965 42.4564L57.5148 42.375C58.3175 45.705 60.0247 47.8842 62.4328 48.6785C65.6663 49.7376 70.1321 48.3629 75.3328 44.7172L75.5928 45.0227C71.4549 47.925 67.7466 49.4118 64.7166 49.4118V49.4016Z" fill="#525252"/>
<path id="Vector_116" d="M76.3955 61.8967C76.2711 61.8967 76.2146 61.8458 76.1694 61.7847C75.9885 61.5505 75.7397 61.2246 86.028 54.0045L86.2881 54.31C79.482 59.0861 77.413 60.7765 76.7912 61.3774C77.0738 61.2552 77.5374 61.0413 78.3401 60.6136L78.5549 60.9496C77.1869 61.6829 76.6442 61.8967 76.3842 61.8967H76.3955Z" fill="#525252"/>
</g>
<g id="Group_52">
<path id="Vector_117" d="M66.469 126.928C65.0105 126.928 63.5068 126.847 61.9806 126.684L61.7884 126.664V126.49C62.2971 108.578 68.2553 93.9135 77.707 87.2841L77.7748 87.2332H77.8652C82.7946 87.7729 87.0456 86.5713 89.9285 83.8523C87.1134 81.8156 85.5645 79.4632 85.4288 76.9479C85.2366 73.4448 87.803 69.7278 92.8341 66.1941L93.0829 66.021L93.1733 66.296C95.3893 73.3429 94.4848 79.6669 90.7086 83.6486C90.6634 83.6995 90.6069 83.7504 90.5617 83.8013C91.0026 84.1069 91.4887 84.4022 91.9862 84.6975L92.054 84.7382L92.0767 84.8095C96.4181 98.6692 94.6657 111.093 87.2491 118.904C82.2745 124.148 75.0049 126.928 66.469 126.928ZM62.2293 126.317C72.4611 127.366 81.2344 124.657 86.9325 118.649C94.2361 110.951 95.9659 98.6794 91.6923 84.9826C91.1948 84.6975 90.72 84.392 90.2677 84.0865C87.3056 86.8971 82.9529 88.1497 77.9105 87.6303C68.6171 94.1987 62.772 108.639 62.2293 126.317ZM92.8454 66.6829C88.097 70.074 85.6889 73.6179 85.8584 76.9275C85.9828 79.3308 87.4865 81.5915 90.2225 83.5569C90.279 83.506 90.3356 83.4449 90.3808 83.394C94.0099 79.565 94.9031 73.4855 92.8454 66.6727V66.6829Z" fill="#525252"/>
<path id="Vector_118" d="M92.9698 107.743C83.7782 95.6244 83.9591 84.4022 93.4786 77.732L93.7386 78.0375C84.4339 84.5651 84.2756 95.5938 93.3203 107.529L92.9698 107.743Z" fill="#525252"/>
</g>
<g id="Group_53">
<path id="Vector_119" d="M47.8596 61.8356L47.7691 61.5606C45.5645 54.5137 46.4577 48.1897 50.2338 44.208C50.279 44.1571 50.3356 44.1062 50.3808 44.0552C49.9399 43.7497 49.4537 43.4544 48.9562 43.1591L48.8884 43.1184L48.8658 43.0471C44.5244 29.1874 46.2768 16.7635 53.6934 8.9528C59.5159 2.81216 68.4927 0.0524365 78.9506 1.1828L79.1428 1.20317V1.37629C78.634 19.289 72.6759 33.9532 63.2242 40.5827L63.1564 40.6336H63.0659C58.1366 40.0939 53.8856 41.2955 51.0026 44.0145C53.8177 46.0512 55.3666 48.4036 55.5023 50.9189C55.6945 54.422 53.1281 58.139 48.097 61.6727L47.8483 61.8458L47.8596 61.8356ZM50.72 44.2895C50.6634 44.3404 50.6182 44.4015 50.5617 44.4524C46.9325 48.2814 46.0393 54.3609 48.097 61.1737C52.8454 57.7826 55.2536 54.2387 55.084 50.9291C54.9596 48.5258 53.456 46.2651 50.72 44.2997V44.2895ZM49.2502 42.874C49.7477 43.1591 50.2225 43.4646 50.6747 43.7701C53.6369 40.9595 57.9896 39.7069 63.032 40.2263C72.3254 33.6579 78.1705 19.2177 78.7132 1.53922C68.4814 0.480143 59.7081 3.19913 54.0099 9.20738C46.7064 16.9061 44.9766 29.1772 49.2502 42.874Z" fill="#525252"/>
<path id="Vector_120" d="M54.2248 54.7988C51.7488 46.8964 52.755 39.7985 56.9834 35.3382C60.3186 31.8249 65.4514 30.2464 71.4322 30.888L71.387 31.275C65.5645 30.6436 60.556 32.1813 57.3113 35.5928C53.1733 39.9513 52.201 46.9168 54.6431 54.697L54.2248 54.7988Z" fill="#525252"/>
<path id="Vector_121" d="M54.4509 48.4647C51.2287 38.1895 52.5289 28.9735 58.0348 23.1791C62.365 18.6169 69.0241 16.5598 76.7912 17.4051L76.746 17.792C69.1258 16.9672 62.6024 18.9733 58.3627 23.4337C52.9585 29.1263 51.6809 38.2201 54.8692 48.3628L54.4509 48.4647Z" fill="#525252"/>
<path id="Vector_122" d="M52.8794 42.5684L52.6193 42.2629C61.9579 35.715 64.0721 21.9163 58.2948 5.34783L58.7019 5.23581C64.5357 21.9571 62.3649 35.9186 52.8794 42.5684Z" fill="#525252"/>
</g>
<g id="Group_54">
<path id="Vector_123" d="M92.8455 66.6829L92.755 66.408C88.7075 53.5157 75.4006 41.9574 63.0772 40.6234L62.5572 40.5725L62.9642 40.2873C72.3254 33.719 78.2157 19.177 78.7132 1.37627V1.16241L78.9506 1.18278C103.518 3.83049 130.064 26.8553 138.114 52.5177L138.182 52.7315L137.933 52.7621C119.233 54.7886 102.467 59.9313 93.0942 66.5098L92.8455 66.6829ZM63.6312 40.2975C75.8754 41.8861 88.9563 53.2814 93.0829 66.021C102.523 59.5137 119.131 54.4322 137.639 52.3955C129.578 27.0386 103.416 4.32948 79.1428 1.59012C78.6001 19.1566 72.8228 33.5662 63.6312 40.2975Z" fill="#525252"/>
<path id="Vector_124" d="M104.728 60.2368C100.183 45.7559 85.2253 32.7618 71.387 31.275L71.4322 30.888C85.4288 32.3952 100.556 45.5115 105.135 60.1248L104.717 60.2266L104.728 60.2368Z" fill="#525252"/>
<path id="Vector_125" d="M120.217 55.5422C114.293 36.662 94.79 19.7269 76.7346 17.7818L76.7799 17.3949C94.9936 19.3501 114.654 36.4176 120.624 55.4302L120.206 55.532L120.217 55.5422Z" fill="#525252"/>
<path id="Vector_126" d="M75.5815 45.0125L75.3214 44.707C84.7053 38.1284 95.1066 25.1649 103.145 10.0322L103.529 10.1952C95.4684 25.3685 85.0218 38.383 75.5815 45.0023V45.0125Z" fill="#525252"/>
</g>
<g id="Group_55">
<path id="Vector_127" d="M112.506 94.6366C111.048 94.6366 109.544 94.5551 108.018 94.3922H107.927L107.871 94.3209C102.365 88.0479 96.2598 84.5753 90.2677 84.0763C87.2943 86.9175 82.8963 88.1701 77.7974 87.6303L77.2773 87.5794L77.6844 87.2943C81.5849 84.5549 85.8132 83.3737 90.0981 83.6792C90.1886 83.5977 90.2677 83.506 90.3582 83.4144C94.0439 79.5345 94.9031 73.3429 92.7324 66.4182L92.6872 66.296L92.8002 66.2145C102.241 59.5952 119.086 54.422 137.854 52.3853L138.035 52.365L138.08 52.5279C142.421 66.3876 140.669 78.8115 133.252 86.6222C128.278 91.8667 121.008 94.6468 112.472 94.6468L112.506 94.6366ZM108.154 94.0154C118.431 95.105 127.238 92.386 132.959 86.3574C140.251 78.6791 141.992 66.4487 137.741 52.7825C119.188 54.8192 102.568 59.9109 93.1959 66.4283C95.3553 73.4244 94.4509 79.6974 90.6973 83.6588C90.6747 83.6792 90.6634 83.6995 90.6408 83.7097C96.6103 84.3105 102.67 87.7933 108.154 94.0154ZM78.3966 87.2943C82.9868 87.6711 86.9551 86.5305 89.7137 84.0356C85.8132 83.8217 81.9693 84.9012 78.3966 87.2943Z" fill="#525252"/>
<path id="Vector_128" d="M90.4938 84.1782C89.6572 84.1782 88.798 84.1272 87.9274 84.0356L87.9727 83.6486C93.8065 84.28 98.8036 82.7423 102.037 79.3308C106.175 74.9723 107.147 68.0068 104.717 60.2266L105.135 60.1248C107.611 68.0272 106.605 75.125 102.376 79.5854C99.5272 82.5895 95.3667 84.1782 90.4938 84.1782Z" fill="#525252"/>
<path id="Vector_129" d="M101.619 86.6833C100.533 86.6833 99.4255 86.6222 98.2836 86.5L98.3288 86.113C105.949 86.9379 112.472 84.9317 116.712 80.4714C122.116 74.7788 123.394 65.6849 120.206 55.5422L120.624 55.4404C123.846 65.7155 122.546 74.9315 117.04 80.7259C113.343 84.6262 107.95 86.6833 101.619 86.6833Z" fill="#525252"/>
<path id="Vector_130" d="M93.7386 78.0375L93.4786 77.732C102.942 71.0924 120.047 70.125 139.256 75.1556L139.131 75.5324C120.059 70.5425 103.1 71.4794 93.7386 78.0477V78.0375Z" fill="#525252"/>
</g>
</g>
<path id="Vector_131" d="M129.567 89.7894L129.442 89.7181C113.366 80.3697 98.2044 78.6894 88.8658 85.2272L88.6058 84.9217C93.716 81.3371 95.2762 74.4123 92.755 66.3979C88.7075 53.5057 75.4006 41.9474 63.0772 40.6134C58.8602 40.1551 55.1405 40.9596 52.3367 42.925L52.0767 42.6195C61.404 36.0716 63.3373 22.4053 57.2208 6.06084L57.1756 5.92846L57.2999 5.84699C62.9529 1.88562 70.4486 0.256261 78.9506 1.18296C103.518 3.83066 130.064 26.8555 138.114 52.5179C143.156 68.5772 140.002 82.4777 129.691 89.7181L129.567 89.7996V89.7894ZM102.682 80.8992C110.63 80.8992 119.934 83.7404 129.544 89.3108C139.618 82.1518 142.67 68.4448 137.696 52.6095C129.691 27.0897 103.315 4.18708 78.9054 1.55975C70.573 0.6636 63.2355 2.22167 57.673 6.08121C63.3486 21.3564 62.0371 34.32 54.2587 41.4077C56.7912 40.2875 59.8098 39.8904 63.1338 40.2468C75.6154 41.591 89.0919 53.2816 93.1733 66.3063C95.4006 73.4144 94.4735 79.6874 90.7426 83.6284C94.1795 81.8055 98.227 80.9094 102.693 80.9094L102.682 80.8992Z" fill="#525252"/>
</g>
<g id="Group_56">
<g id="Group_57">
<g id="Group_58">
<path id="Vector_132" d="M66.469 126.928C65.0105 126.928 63.5068 126.847 61.9806 126.684L61.7884 126.664V126.49C62.2971 108.578 68.2553 93.9135 77.707 87.2841L77.7748 87.2332H77.8652C82.7946 87.7729 87.0456 86.5713 89.9285 83.8523C87.1134 81.8156 85.5645 79.4632 85.4288 76.9479C85.2366 73.4448 87.803 69.7278 92.8341 66.1941L93.0829 66.021L93.1733 66.296C95.3893 73.3429 94.4848 79.6669 90.7086 83.6486C90.6634 83.6995 90.6069 83.7504 90.5617 83.8013C91.0026 84.1069 91.4887 84.4022 91.9862 84.6975L92.054 84.7382L92.0767 84.8095C96.4181 98.6692 94.6657 111.093 87.2491 118.904C82.2745 124.148 75.0049 126.928 66.469 126.928ZM62.2293 126.317C72.4611 127.366 81.2344 124.657 86.9325 118.649C94.2361 110.951 95.9659 98.6794 91.6923 84.9826C91.1948 84.6975 90.72 84.392 90.2677 84.0865C87.3056 86.8971 82.9529 88.1497 77.9105 87.6303C68.6171 94.1987 62.772 108.639 62.2293 126.317ZM92.8454 66.6829C88.097 70.074 85.6889 73.6179 85.8584 76.9275C85.9828 79.3308 87.4865 81.5915 90.2225 83.5569C90.279 83.506 90.3356 83.4449 90.3808 83.394C94.0099 79.565 94.9031 73.4855 92.8454 66.6727V66.6829Z" fill="#525252"/>
<path id="Vector_133" d="M82.2293 122.621C76.3842 105.9 78.5662 91.938 88.0518 85.2881L88.3118 85.5937C78.9732 92.1416 76.859 105.94 82.6363 122.509L82.2293 122.621Z" fill="#525252"/>
</g>
<g id="Group_59">
<path id="Vector_134" d="M112.506 94.6366C111.048 94.6366 109.544 94.5551 108.018 94.3922H107.927L107.871 94.3209C102.365 88.0479 96.2598 84.5753 90.2677 84.0763C87.2943 86.9175 82.8963 88.1701 77.7974 87.6303L77.2773 87.5794L77.6844 87.2943C81.5849 84.5549 85.8132 83.3737 90.0981 83.6792C90.1886 83.5977 90.2677 83.506 90.3582 83.4144C94.0439 79.5345 94.9031 73.3429 92.7324 66.4182L92.6872 66.296L92.8002 66.2145C102.241 59.5952 119.086 54.422 137.854 52.3853L138.035 52.365L138.08 52.5279C142.421 66.3876 140.669 78.8115 133.252 86.6222C128.278 91.8667 121.008 94.6468 112.472 94.6468L112.506 94.6366ZM108.154 94.0154C118.431 95.105 127.238 92.386 132.959 86.3574C140.251 78.6791 141.992 66.4487 137.741 52.7825C119.188 54.8192 102.568 59.9109 93.1959 66.4283C95.3553 73.4244 94.4509 79.6974 90.6973 83.6588C90.6747 83.6792 90.6634 83.6995 90.6408 83.7097C96.6103 84.3105 102.67 87.7933 108.154 94.0154ZM78.3966 87.2943C82.9868 87.6711 86.9551 86.5305 89.7137 84.0356C85.8132 83.8217 81.9693 84.9012 78.3966 87.2943Z" fill="#525252"/>
<path id="Vector_135" d="M90.4938 84.1782C89.6572 84.1782 88.798 84.1272 87.9274 84.0356L87.9727 83.6486C93.8065 84.28 98.8036 82.7423 102.037 79.3308C106.175 74.9723 107.147 68.0068 104.717 60.2266L105.135 60.1248C107.611 68.0272 106.605 75.125 102.376 79.5854C99.5272 82.5895 95.3667 84.1782 90.4938 84.1782Z" fill="#525252"/>
<path id="Vector_136" d="M128.357 90.4308C112.619 80.8583 97.6504 79.0457 88.3118 85.5936L88.0518 85.2881C97.5374 78.6281 112.698 80.4306 128.594 90.1049L128.357 90.4206V90.4308Z" fill="#525252"/>
</g>
</g>
<path id="Vector_137" d="M80.1264 87.7526C79.3802 87.7526 78.6114 87.7118 77.82 87.6303L77.3 87.5794L77.707 87.2943C81.7545 84.4531 86.1411 83.2616 90.7426 83.7606C91.1496 83.8014 91.2627 83.8014 91.3644 83.8014L91.3983 84.1883C90.8669 84.2494 90.0077 84.4837 88.8658 85.2576C86.5029 86.9175 83.5069 87.7729 80.1264 87.7729V87.7526ZM78.4079 87.2943C82.4102 87.6303 85.9263 86.8157 88.6058 84.9317C89.205 84.5244 89.7364 84.2596 90.1886 84.0865C86.0394 83.7504 82.0823 84.8299 78.3966 87.2943H78.4079Z" fill="#525252"/>
</g>
<g id="Group_60">
<g id="Group_61">
<g id="Group_62">
<path id="Vector_138" d="M66.469 126.928C65.0105 126.928 63.5068 126.847 61.9806 126.684L61.7884 126.664V126.49C62.2971 108.578 68.2553 93.9135 77.707 87.2841L77.7748 87.2332H77.8652C82.7946 87.7729 87.0456 86.5713 89.9285 83.8523C87.1134 81.8156 85.5645 79.4632 85.4288 76.9479C85.2366 73.4448 87.803 69.7278 92.8341 66.1941L93.0829 66.021L93.1733 66.296C95.3893 73.3429 94.4848 79.6669 90.7086 83.6486C90.6634 83.6995 90.6069 83.7504 90.5617 83.8013C91.0026 84.1069 91.4887 84.4022 91.9862 84.6975L92.054 84.7382L92.0767 84.8095C96.4181 98.6692 94.6657 111.093 87.2491 118.904C82.2745 124.148 75.0049 126.928 66.469 126.928ZM62.2293 126.317C72.4611 127.366 81.2344 124.657 86.9325 118.649C94.2361 110.951 95.9659 98.6794 91.6923 84.9826C91.1948 84.6975 90.72 84.392 90.2677 84.0865C87.3056 86.8971 82.9529 88.1497 77.9105 87.6303C68.6171 94.1987 62.772 108.639 62.2293 126.317ZM92.8454 66.6829C88.097 70.074 85.6889 73.6179 85.8584 76.9275C85.9828 79.3308 87.4865 81.5915 90.2225 83.5569C90.279 83.506 90.3356 83.4449 90.3808 83.394C94.0099 79.565 94.9031 73.4855 92.8454 66.6727V66.6829Z" fill="#525252"/>
<path id="Vector_139" d="M82.2293 122.621C76.3842 105.9 78.5662 91.938 88.0518 85.2881L88.3118 85.5937C78.9732 92.1416 76.859 105.94 82.6363 122.509L82.2293 122.621Z" fill="#525252"/>
</g>
<g id="Group_63">
<path id="Vector_140" d="M112.506 94.6366C111.048 94.6366 109.544 94.5551 108.018 94.3922H107.927L107.871 94.3209C102.365 88.0479 96.2598 84.5753 90.2677 84.0763C87.2943 86.9175 82.8963 88.1701 77.7974 87.6303L77.2773 87.5794L77.6844 87.2943C81.5849 84.5549 85.8132 83.3737 90.0981 83.6792C90.1886 83.5977 90.2677 83.506 90.3582 83.4144C94.0439 79.5345 94.9031 73.3429 92.7324 66.4182L92.6872 66.296L92.8002 66.2145C102.241 59.5952 119.086 54.422 137.854 52.3853L138.035 52.365L138.08 52.5279C142.421 66.3876 140.669 78.8115 133.252 86.6222C128.278 91.8667 121.008 94.6468 112.472 94.6468L112.506 94.6366ZM108.154 94.0154C118.431 95.105 127.238 92.386 132.959 86.3574C140.251 78.6791 141.992 66.4487 137.741 52.7825C119.188 54.8192 102.568 59.9109 93.1959 66.4283C95.3553 73.4244 94.4509 79.6974 90.6973 83.6588C90.6747 83.6792 90.6634 83.6995 90.6408 83.7097C96.6103 84.3105 102.67 87.7933 108.154 94.0154ZM78.3966 87.2943C82.9868 87.6711 86.9551 86.5305 89.7137 84.0356C85.8132 83.8217 81.9693 84.9012 78.3966 87.2943Z" fill="#525252"/>
<path id="Vector_141" d="M90.4938 84.1782C89.6572 84.1782 88.798 84.1272 87.9274 84.0356L87.9727 83.6486C93.8065 84.28 98.8036 82.7423 102.037 79.3308C106.175 74.9723 107.147 68.0068 104.717 60.2266L105.135 60.1248C107.611 68.0272 106.605 75.125 102.376 79.5854C99.5272 82.5895 95.3667 84.1782 90.4938 84.1782Z" fill="#525252"/>
<path id="Vector_142" d="M101.619 86.6833C100.533 86.6833 99.4255 86.6222 98.2836 86.5L98.3288 86.113C105.949 86.9379 112.472 84.9317 116.712 80.4714C122.116 74.7788 123.394 65.6849 120.206 55.5422L120.624 55.4404C123.846 65.7155 122.546 74.9315 117.04 80.7259C113.343 84.6262 107.95 86.6833 101.619 86.6833Z" fill="#525252"/>
<path id="Vector_143" d="M128.357 90.4308C112.619 80.8583 97.6504 79.0457 88.3118 85.5936L88.0518 85.2881C97.5374 78.6281 112.698 80.4306 128.594 90.1049L128.357 90.4206V90.4308Z" fill="#525252"/>
</g>
</g>
<path id="Vector_144" d="M112.551 94.6366C111.082 94.6366 109.567 94.5551 108.018 94.3922H107.927L107.871 94.3209C102.749 88.4756 96.9947 84.9928 91.2174 84.1985C90.1094 84.4022 89.205 85.003 88.8545 85.2372L88.5945 84.9317C98.08 78.2819 113.433 79.952 129.669 89.3921L129.917 89.5347L129.68 89.6976C125.044 92.9563 119.177 94.6264 112.54 94.6264L112.551 94.6366ZM108.154 94.0154C116.384 94.8912 123.654 93.3535 129.182 89.5754C114.53 81.1129 100.635 79.0457 91.2739 83.7912C91.3079 83.7912 91.3192 83.7912 91.3418 83.7912V83.8319C97.1982 84.6466 102.987 88.1599 108.154 94.0256V94.0154Z" fill="#525252"/>
</g>
<g id="Group_64">
<g id="Group_65">
<path id="Vector_145" d="M137.707 52.6297C134.745 45.8272 123.258 40.878 106.198 39.0348L106.051 39.0144L106.017 38.8922C100.409 21.0304 90.5052 7.40491 78.8262 1.52904L77.8766 1.05042L78.9506 1.16243C103.518 3.81014 130.064 26.835 138.114 52.4973L137.707 52.6195V52.6297ZM106.39 38.6682C121.913 40.3586 132.845 44.6357 137.017 50.5625C128.414 26.2443 103.428 4.76738 79.9681 1.69197C91.3079 7.8428 100.895 21.2443 106.39 38.6784V38.6682Z" fill="#525252"/>
<path id="Vector_146" d="M106.345 39.0042L106.107 38.6885C123.846 27.6497 124.377 28.0672 124.626 28.2301C124.66 28.2607 124.784 28.3625 124.705 28.556L124.31 28.4134C124.31 28.4134 124.31 28.4643 124.343 28.5051C124.377 28.5458 124.423 28.556 124.434 28.556C124.129 28.556 121.901 29.3401 106.379 39.0042H106.345Z" fill="#525252"/>
</g>
<path id="Vector_147" d="M134.971 45.4809C134.372 44.208 133.603 42.6499 132.913 41.3261C127.927 32.0591 120.613 23.3624 112.009 16.4377C110.211 15.0629 107.905 13.3724 106.039 12.0588L106.299 11.7533C108.357 13.1179 110.358 14.5843 112.291 16.1423C112.552 16.3358 112.789 16.5293 113.026 16.7126C113.84 17.344 114.813 18.2096 115.672 18.9632C115.955 19.2178 116.226 19.4622 116.486 19.6862C118.498 21.4479 121.574 24.6455 123.258 26.6008C124.524 28.0672 126.186 30.1752 128.323 33.0469C128.922 33.8616 129.612 34.9207 130.211 35.8576L130.607 36.4686C131.285 37.5073 132.167 39.0043 132.8 40.1855C132.959 40.491 133.139 40.8169 133.32 41.1631C134.067 42.5481 134.756 43.9331 135.389 45.3384L134.994 45.4911L134.971 45.4809Z" fill="#525252"/>
</g>
<g id="Group_66">
<g id="Group_67">
<g id="Group_68">
<path id="Vector_148" d="M108.21 94.4125L108.018 94.3922C83.4503 91.7445 56.9042 68.7196 48.8545 43.0573L48.798 42.8638L49.0128 42.8129C68.2101 38.3219 89.0806 36.8046 106.243 38.658L106.39 38.6784L106.424 38.8006C112.054 56.7439 112.721 76.9581 108.244 94.2394L108.199 94.4125H108.21ZM49.3293 43.1489C57.3904 68.5261 83.5747 91.276 107.871 93.995C112.269 76.846 111.602 56.8355 106.051 39.0348C89.0241 37.2221 68.3684 38.7191 49.3293 43.1489Z" fill="#525252"/>
<path id="Vector_149" d="M110.754 76.8053C92.9585 74.8908 73.7386 58.2205 67.9161 39.6356L68.3344 39.5338C74.123 57.9761 93.1733 74.5242 110.81 76.4183L110.765 76.8053H110.754Z" fill="#525252"/>
<path id="Vector_150" d="M110.223 57.976C100.737 56.9577 90.4825 48.0675 87.3734 38.159L87.7918 38.0572C90.8556 47.8231 100.94 56.5911 110.279 57.5891L110.234 57.976H110.223Z" fill="#525252"/>
<path id="Vector_151" d="M83.8234 85.5529L83.4616 85.3493C93.9987 70.2879 102.218 53.3324 106.017 38.8108L106.435 38.9024C102.625 53.4648 94.3831 70.4712 83.8234 85.5529Z" fill="#525252"/>
</g>
<g id="Group_69">
<path id="Vector_152" d="M48.9222 43.2406L48.8657 43.0573C44.5242 29.1975 46.2766 16.7737 53.6933 8.96298C59.5158 2.81216 68.4926 0.052435 78.9505 1.1828L79.0296 1.20317C90.799 7.12995 100.793 20.8369 106.424 38.8006L106.514 39.0755L106.197 39.045C89.0805 37.2018 68.2778 38.7191 49.1257 43.1896L48.9222 43.2406ZM74.4734 1.31519C66.0618 1.31519 58.9052 4.05454 54.0098 9.20738C46.7289 16.8857 44.9765 29.1059 49.2162 42.7619C68.2439 38.3321 88.877 36.825 105.926 38.6173C100.318 20.9082 90.4598 7.40491 78.86 1.54941C77.3676 1.38647 75.8979 1.31519 74.4621 1.31519H74.4734Z" fill="#525252"/>
<path id="Vector_153" d="M67.9161 39.6356C64.7618 29.5947 66.0393 20.5925 71.4209 14.9305C75.6493 10.4701 82.1614 8.46398 89.7477 9.27866L89.7024 9.66563C82.2632 8.87132 75.8867 10.8265 71.7488 15.1749C66.469 20.7351 65.2253 29.6151 68.3344 39.5236L67.9161 39.6254V39.6356Z" fill="#525252"/>
<path id="Vector_154" d="M87.3734 38.1692C85.6889 32.8025 86.3785 27.9857 89.2502 24.9612C91.5227 22.5681 95.0049 21.4887 99.075 21.9265L99.0297 22.3135C95.1066 21.8858 91.7488 22.9245 89.5781 25.2158C86.7968 28.1487 86.1411 32.8331 87.7804 38.0674L87.3621 38.1692H87.3734Z" fill="#525252"/>
<path id="Vector_155" d="M106.107 39.0144C88.4927 28.3931 67.2378 21.621 47.7691 20.4296L47.8031 20.0426C67.3395 21.2443 88.6736 28.0366 106.345 38.6987L106.107 39.0246V39.0144Z" fill="#525252"/>
<path id="Vector_156" d="M106.051 38.9635C92.5741 22.5986 75.2197 10.3887 58.4305 5.48022L58.5662 5.11362C75.4345 10.0526 92.8681 22.3033 106.401 38.7395L106.062 38.9737L106.051 38.9635Z" fill="#525252"/>
</g>
<g id="Group_70">
<path id="Vector_157" d="M137.707 52.6297C134.745 45.8272 123.258 40.878 106.198 39.0348L106.051 39.0144L106.017 38.8922C100.409 21.0304 90.5052 7.40491 78.8262 1.52904L77.8766 1.05042L78.9506 1.16243C103.518 3.81014 130.064 26.835 138.114 52.4973L137.707 52.6195V52.6297ZM106.39 38.6682C121.913 40.3586 132.845 44.6357 137.017 50.5625C128.414 26.2443 103.428 4.76738 79.9681 1.69197C91.3079 7.8428 100.895 21.2443 106.39 38.6784V38.6682Z" fill="#525252"/>
<path id="Vector_158" d="M132.167 46.5502C126.379 28.1079 107.328 11.5598 89.6911 9.66563L89.7364 9.27866C107.532 11.1931 126.752 27.8635 132.574 46.4484L132.156 46.5502H132.167Z" fill="#525252"/>
<path id="Vector_159" d="M121.517 41.8454C118.453 32.0795 108.368 23.3115 99.0298 22.3135L99.075 21.9265C108.572 22.9449 118.815 31.8351 121.924 41.7436L121.506 41.8454H121.517Z" fill="#525252"/>
<path id="Vector_160" d="M106.435 38.8922L106.017 38.8006C109.793 24.34 108.775 13.9427 103.213 10.2665L103.462 9.95078C109.171 13.7187 110.256 24.2586 106.424 38.882L106.435 38.8922Z" fill="#525252"/>
</g>
<g id="Group_71">
<path id="Vector_161" d="M112.506 94.6366C111.048 94.6366 109.544 94.5551 108.018 94.3922L107.78 94.3616L107.837 94.1478C112.291 76.9173 111.624 56.7846 106.017 38.9024L105.926 38.6274L106.243 38.658C123.473 40.5114 135.084 45.5522 138.103 52.4973V52.5177C142.455 66.3774 140.703 78.8013 133.286 86.612C128.312 91.8565 121.042 94.6366 112.506 94.6366ZM108.301 94.0357C118.521 95.0846 127.272 92.3555 132.959 86.3574C140.273 78.6485 142.003 66.3571 137.696 52.6297C134.745 45.8781 123.394 40.9391 106.503 39.0857C112.031 56.8864 112.676 76.8868 108.289 94.0357H108.301Z" fill="#525252"/>
<path id="Vector_162" d="M114.01 76.9784C112.947 76.9784 111.862 76.9173 110.754 76.8053L110.799 76.4183C118.25 77.2228 124.615 75.2574 128.753 70.9091C134.033 65.3489 135.276 56.4689 132.167 46.5604L132.585 46.4585C135.74 56.4994 134.462 65.5016 129.081 71.1636C125.474 74.9723 120.194 76.9886 114.01 76.9886V76.9784Z" fill="#525252"/>
<path id="Vector_163" d="M111.964 58.0779C111.398 58.0779 110.822 58.0473 110.223 57.9862L110.268 57.5993C114.191 58.0168 117.549 56.9883 119.719 54.697C122.501 51.7641 123.156 47.0797 121.517 41.8454L121.935 41.7436C123.62 47.1103 122.93 51.9271 120.059 54.9516C118.125 56.9984 115.288 58.0779 111.975 58.0779H111.964Z" fill="#525252"/>
<path id="Vector_164" d="M138.985 75.3796C135.683 62.8743 123.699 49.6154 106.107 39.0042L106.345 38.6783C124.027 49.3404 136.079 62.6808 139.403 75.2778L138.985 75.3694V75.3796Z" fill="#525252"/>
<path id="Vector_165" d="M128.267 90.278C127.633 74.0354 119.539 55.3283 106.051 38.9635L106.39 38.7293C119.923 55.1552 128.052 73.9437 128.685 90.2577H128.255L128.267 90.278Z" fill="#525252"/>
</g>
</g>
<path id="Vector_166" d="M112.506 94.6366C111.104 94.6366 109.669 94.5653 108.21 94.4126L107.78 94.3616C83.2807 91.5917 56.8816 68.628 48.8545 43.0573C44.5131 29.1975 46.2655 16.7737 53.6821 8.96298C59.5159 2.81216 68.4927 0.0524349 78.9506 1.1828C87.8596 2.14005 97.3 5.79592 106.277 11.7533C107.554 12.6087 109.001 13.5863 110.053 14.4111C110.336 14.625 110.63 14.8592 110.946 15.1036C111.76 15.735 112.687 16.4478 113.399 17.0385C114.134 17.6495 115.039 18.4336 115.83 19.1363L116.542 19.7575C119.211 22.0895 122.128 25.3482 123.224 26.5804C124.875 28.4338 125.531 29.3299 128.301 33.0571C128.911 33.882 129.612 34.9716 130.223 35.9288L130.675 36.6213C131.636 38.1081 132.766 40.1855 133.546 41.6214C133.942 42.3648 134.383 43.2813 134.801 44.1571C134.994 44.5746 135.186 44.9718 135.367 45.3282C136.452 47.7111 137.379 50.1246 138.125 52.5075C142.467 66.3672 140.714 78.7911 133.298 86.6018C128.323 91.8463 121.053 94.6264 112.518 94.6264L112.506 94.6366ZM108.301 94.0358C118.521 95.0847 127.272 92.3555 132.959 86.3574C140.273 78.6485 142.003 66.3469 137.696 52.6195C136.949 50.2468 136.034 47.8435 134.96 45.4809C134.79 45.1245 134.598 44.7274 134.406 44.3098C133.987 43.4341 133.558 42.5277 133.162 41.7843C132.393 40.3586 131.263 38.2812 130.313 36.8046L129.861 36.1121C129.25 35.1651 128.561 34.0856 127.95 33.2608C125.191 29.5438 124.536 28.6578 122.896 26.8248C121.8 25.5926 118.894 22.3441 116.249 20.0324L115.536 19.4112C114.745 18.7188 113.852 17.9244 113.117 17.3236C112.405 16.7432 111.489 16.0303 110.675 15.3989C110.358 15.1545 110.053 14.9203 109.782 14.7065C108.73 13.8816 107.226 12.8632 106.028 12.0689C97.1191 6.15234 87.7352 2.51684 78.9054 1.56977C68.5832 0.459774 59.742 3.17876 54.01 9.21757C46.6951 16.9265 44.9653 29.2281 49.2728 42.9554C57.2547 68.4141 83.5182 91.2659 107.882 93.9848C112.291 76.7951 111.613 56.7337 106.017 38.9024L106.435 38.8006C106.469 38.8922 106.492 38.9941 106.526 39.0857C106.526 39.0857 106.548 39.157 106.559 39.1977C112.054 56.9679 112.687 76.9173 108.312 94.0256L108.301 94.0358Z" fill="#525252"/>
</g>
</g>
</g>
<defs>
<clipPath id="clip0_169_763">
<rect width="140" height="126" fill="white" transform="translate(0.465576 0.928223)"/>
</clipPath>
</defs>
</svg>
